%
M48
M72
T01C0.0160
T02C0.0276
T03C0.0320
T04C0.0394
T05C0.0400
T06C0.0472
T07C0.0492
T08C0.0650
T09C0.0866
%
T01
X4644Y7920
X8187Y8746
X13581Y11187
X14368Y6778
X15864Y4888
X16179Y1896
X19368Y4691
X21927Y4101
X24250Y8628
X26849Y8038
X29920Y8156
X26731Y11542
X25156Y14691
X26927Y16896
X27990Y20046
X30825Y20439
X28187Y23668
X30195Y25597
X27951Y28156
X26140Y26148
X23502Y20597
X23069Y18825
X20038Y20872
X19959Y24534
X19447Y26660
X16219Y26738
X14959Y26620
X15392Y25754
X15392Y25085
X14683Y25203
X13660Y24573
X13778Y23313
X12675Y22486
X11612Y21581
X13620Y19573
X12557Y17211
X8227Y16935
X5904Y16542
X4683Y19573
X6455Y22171
X7006Y22014
X4290Y26345
X6652Y26896
X8384Y30400
X12164Y27132
X11967Y25282
X12164Y24061
X15195Y22644
X16652Y23274
X14093Y26857
X14683Y29534
X2085Y16817
X18857Y16069
X31534Y12329
T02
X31486Y16285
X30841Y16737
X30196Y17188
X29551Y17640
X28906Y18092
X28261Y18543
X27616Y18995
X26971Y19447
X26326Y19898
X25681Y20350
X20713Y13255
X21358Y12803
X22003Y12352
X22648Y11900
X23293Y11448
X23938Y10997
X24583Y10545
X25228Y10093
X25873Y9642
X26518Y9190
T03
X26888Y6136
X26888Y5136
T04
X16792Y14792
X15792Y14792
X14792Y14792
X13792Y14792
X12792Y14792
X11792Y14792
X10792Y14792
X9792Y14792
X8792Y14792
X7792Y14792
X6792Y14792
X5792Y14792
X4792Y14792
X3792Y14792
X2792Y14792
X2792Y20792
X3792Y20792
X4792Y20792
X5792Y20792
X6792Y20792
X7792Y20792
X8792Y20792
X9792Y20792
X10792Y20792
X11792Y20792
X12792Y20792
X13792Y20792
X14792Y20792
X15792Y20792
X16792Y20792
X9872Y24372
X9872Y25372
X9872Y26372
X9872Y27372
X9872Y28372
X9872Y29372
X23872Y28372
X23872Y27372
X23872Y26372
X23872Y25372
X11562Y3632
X11562Y2712
T05
X3305Y9675
X3305Y10675
X3305Y12290
X2305Y12290
X3032Y22552
X3032Y23552
X3032Y24552
X5532Y24537
X5532Y25537
X5532Y23537
X8032Y23537
X8032Y24537
X8032Y25537
X21391Y18595
X22690Y21942
X26332Y23536
X29934Y21981
X31273Y18595
X29698Y14973
X22926Y14973
X19189Y11762
X18189Y11762
X17189Y11762
X16189Y11762
X15189Y11762
X22030Y5321
X23030Y5321
X24030Y5321
X24062Y2822
X23062Y2822
X22062Y2822
T06
X7065Y5282
X7951Y3510
X11199Y5282
X11562Y1752
X11199Y12368
X7065Y12368
T07
X13896Y31797
X17046Y31797
T08
X17792Y20792
X17792Y14792
X1792Y14792
X1792Y20792
T09
X12372Y23122
X12372Y30622
X22872Y30622
M30
