G75*
%MOIN*%
%OFA0B0*%
%FSLAX25Y25*%
%IPPOS*%
%LPD*%
%AMOC8*
5,1,8,0,0,1.08239X$1,22.5*
%
%ADD10C,0.00800*%
%ADD11C,0.00000*%
D10*
X0001400Y0168723D02*
X0001450Y0172829D01*
X0001602Y0176933D01*
X0001853Y0181032D01*
X0002206Y0185124D01*
X0002658Y0189205D01*
X0003211Y0193274D01*
X0003863Y0197329D01*
X0004615Y0201366D01*
X0005466Y0205384D01*
X0006414Y0209379D01*
X0007461Y0213350D01*
X0008605Y0217294D01*
X0009845Y0221209D01*
X0011181Y0225092D01*
X0012612Y0228942D01*
X0014137Y0232755D01*
X0015755Y0236529D01*
X0017465Y0240263D01*
X0019266Y0243953D01*
X0021157Y0247599D01*
X0023137Y0251196D01*
X0025205Y0254744D01*
X0027360Y0258240D01*
X0029599Y0261683D01*
X0031922Y0265069D01*
X0034328Y0268397D01*
X0036815Y0271665D01*
X0039381Y0274872D01*
X0042025Y0278014D01*
X0044745Y0281090D01*
X0047540Y0284099D01*
X0050408Y0287038D01*
X0053347Y0289906D01*
X0056356Y0292701D01*
X0059432Y0295421D01*
X0062574Y0298065D01*
X0065781Y0300631D01*
X0069049Y0303118D01*
X0072377Y0305524D01*
X0075763Y0307847D01*
X0079206Y0310086D01*
X0082702Y0312241D01*
X0086250Y0314309D01*
X0089847Y0316289D01*
X0093493Y0318180D01*
X0097183Y0319981D01*
X0100917Y0321691D01*
X0104691Y0323309D01*
X0108504Y0324834D01*
X0112354Y0326265D01*
X0116237Y0327601D01*
X0120152Y0328841D01*
X0124096Y0329985D01*
X0128067Y0331032D01*
X0132062Y0331980D01*
X0136080Y0332831D01*
X0140117Y0333583D01*
X0144172Y0334235D01*
X0148241Y0334788D01*
X0152322Y0335240D01*
X0156414Y0335593D01*
X0160513Y0335844D01*
X0164617Y0335996D01*
X0168723Y0336046D01*
X0172829Y0335996D01*
X0176933Y0335844D01*
X0181032Y0335593D01*
X0185124Y0335240D01*
X0189205Y0334788D01*
X0193274Y0334235D01*
X0197329Y0333583D01*
X0201366Y0332831D01*
X0205384Y0331980D01*
X0209379Y0331032D01*
X0213350Y0329985D01*
X0217294Y0328841D01*
X0221209Y0327601D01*
X0225092Y0326265D01*
X0228942Y0324834D01*
X0232755Y0323309D01*
X0236529Y0321691D01*
X0240263Y0319981D01*
X0243953Y0318180D01*
X0247599Y0316289D01*
X0251196Y0314309D01*
X0254744Y0312241D01*
X0258240Y0310086D01*
X0261683Y0307847D01*
X0265069Y0305524D01*
X0268397Y0303118D01*
X0271665Y0300631D01*
X0274872Y0298065D01*
X0278014Y0295421D01*
X0281090Y0292701D01*
X0284099Y0289906D01*
X0287038Y0287038D01*
X0289906Y0284099D01*
X0292701Y0281090D01*
X0295421Y0278014D01*
X0298065Y0274872D01*
X0300631Y0271665D01*
X0303118Y0268397D01*
X0305524Y0265069D01*
X0307847Y0261683D01*
X0310086Y0258240D01*
X0312241Y0254744D01*
X0314309Y0251196D01*
X0316289Y0247599D01*
X0318180Y0243953D01*
X0319981Y0240263D01*
X0321691Y0236529D01*
X0323309Y0232755D01*
X0324834Y0228942D01*
X0326265Y0225092D01*
X0327601Y0221209D01*
X0328841Y0217294D01*
X0329985Y0213350D01*
X0331032Y0209379D01*
X0331980Y0205384D01*
X0332831Y0201366D01*
X0333583Y0197329D01*
X0334235Y0193274D01*
X0334788Y0189205D01*
X0335240Y0185124D01*
X0335593Y0181032D01*
X0335844Y0176933D01*
X0335996Y0172829D01*
X0336046Y0168723D01*
X0335996Y0164617D01*
X0335844Y0160513D01*
X0335593Y0156414D01*
X0335240Y0152322D01*
X0334788Y0148241D01*
X0334235Y0144172D01*
X0333583Y0140117D01*
X0332831Y0136080D01*
X0331980Y0132062D01*
X0331032Y0128067D01*
X0329985Y0124096D01*
X0328841Y0120152D01*
X0327601Y0116237D01*
X0326265Y0112354D01*
X0324834Y0108504D01*
X0323309Y0104691D01*
X0321691Y0100917D01*
X0319981Y0097183D01*
X0318180Y0093493D01*
X0316289Y0089847D01*
X0314309Y0086250D01*
X0312241Y0082702D01*
X0310086Y0079206D01*
X0307847Y0075763D01*
X0305524Y0072377D01*
X0303118Y0069049D01*
X0300631Y0065781D01*
X0298065Y0062574D01*
X0295421Y0059432D01*
X0292701Y0056356D01*
X0289906Y0053347D01*
X0287038Y0050408D01*
X0284099Y0047540D01*
X0281090Y0044745D01*
X0278014Y0042025D01*
X0274872Y0039381D01*
X0271665Y0036815D01*
X0268397Y0034328D01*
X0265069Y0031922D01*
X0261683Y0029599D01*
X0258240Y0027360D01*
X0254744Y0025205D01*
X0251196Y0023137D01*
X0247599Y0021157D01*
X0243953Y0019266D01*
X0240263Y0017465D01*
X0236529Y0015755D01*
X0232755Y0014137D01*
X0228942Y0012612D01*
X0225092Y0011181D01*
X0221209Y0009845D01*
X0217294Y0008605D01*
X0213350Y0007461D01*
X0209379Y0006414D01*
X0205384Y0005466D01*
X0201366Y0004615D01*
X0197329Y0003863D01*
X0193274Y0003211D01*
X0189205Y0002658D01*
X0185124Y0002206D01*
X0181032Y0001853D01*
X0176933Y0001602D01*
X0172829Y0001450D01*
X0168723Y0001400D01*
X0164617Y0001450D01*
X0160513Y0001602D01*
X0156414Y0001853D01*
X0152322Y0002206D01*
X0148241Y0002658D01*
X0144172Y0003211D01*
X0140117Y0003863D01*
X0136080Y0004615D01*
X0132062Y0005466D01*
X0128067Y0006414D01*
X0124096Y0007461D01*
X0120152Y0008605D01*
X0116237Y0009845D01*
X0112354Y0011181D01*
X0108504Y0012612D01*
X0104691Y0014137D01*
X0100917Y0015755D01*
X0097183Y0017465D01*
X0093493Y0019266D01*
X0089847Y0021157D01*
X0086250Y0023137D01*
X0082702Y0025205D01*
X0079206Y0027360D01*
X0075763Y0029599D01*
X0072377Y0031922D01*
X0069049Y0034328D01*
X0065781Y0036815D01*
X0062574Y0039381D01*
X0059432Y0042025D01*
X0056356Y0044745D01*
X0053347Y0047540D01*
X0050408Y0050408D01*
X0047540Y0053347D01*
X0044745Y0056356D01*
X0042025Y0059432D01*
X0039381Y0062574D01*
X0036815Y0065781D01*
X0034328Y0069049D01*
X0031922Y0072377D01*
X0029599Y0075763D01*
X0027360Y0079206D01*
X0025205Y0082702D01*
X0023137Y0086250D01*
X0021157Y0089847D01*
X0019266Y0093493D01*
X0017465Y0097183D01*
X0015755Y0100917D01*
X0014137Y0104691D01*
X0012612Y0108504D01*
X0011181Y0112354D01*
X0009845Y0116237D01*
X0008605Y0120152D01*
X0007461Y0124096D01*
X0006414Y0128067D01*
X0005466Y0132062D01*
X0004615Y0136080D01*
X0003863Y0140117D01*
X0003211Y0144172D01*
X0002658Y0148241D01*
X0002206Y0152322D01*
X0001853Y0156414D01*
X0001602Y0160513D01*
X0001450Y0164617D01*
X0001400Y0168723D01*
D11*
X0014673Y0147923D02*
X0014675Y0148036D01*
X0014681Y0148150D01*
X0014691Y0148263D01*
X0014705Y0148375D01*
X0014722Y0148487D01*
X0014744Y0148599D01*
X0014770Y0148709D01*
X0014799Y0148819D01*
X0014832Y0148927D01*
X0014869Y0149035D01*
X0014910Y0149140D01*
X0014954Y0149245D01*
X0015002Y0149348D01*
X0015053Y0149449D01*
X0015108Y0149548D01*
X0015167Y0149645D01*
X0015229Y0149740D01*
X0015294Y0149833D01*
X0015362Y0149924D01*
X0015433Y0150012D01*
X0015508Y0150098D01*
X0015585Y0150181D01*
X0015665Y0150261D01*
X0015748Y0150338D01*
X0015834Y0150413D01*
X0015922Y0150484D01*
X0016013Y0150552D01*
X0016106Y0150617D01*
X0016201Y0150679D01*
X0016298Y0150738D01*
X0016397Y0150793D01*
X0016498Y0150844D01*
X0016601Y0150892D01*
X0016706Y0150936D01*
X0016811Y0150977D01*
X0016919Y0151014D01*
X0017027Y0151047D01*
X0017137Y0151076D01*
X0017247Y0151102D01*
X0017359Y0151124D01*
X0017471Y0151141D01*
X0017583Y0151155D01*
X0017696Y0151165D01*
X0017810Y0151171D01*
X0017923Y0151173D01*
X0018036Y0151171D01*
X0018150Y0151165D01*
X0018263Y0151155D01*
X0018375Y0151141D01*
X0018487Y0151124D01*
X0018599Y0151102D01*
X0018709Y0151076D01*
X0018819Y0151047D01*
X0018927Y0151014D01*
X0019035Y0150977D01*
X0019140Y0150936D01*
X0019245Y0150892D01*
X0019348Y0150844D01*
X0019449Y0150793D01*
X0019548Y0150738D01*
X0019645Y0150679D01*
X0019740Y0150617D01*
X0019833Y0150552D01*
X0019924Y0150484D01*
X0020012Y0150413D01*
X0020098Y0150338D01*
X0020181Y0150261D01*
X0020261Y0150181D01*
X0020338Y0150098D01*
X0020413Y0150012D01*
X0020484Y0149924D01*
X0020552Y0149833D01*
X0020617Y0149740D01*
X0020679Y0149645D01*
X0020738Y0149548D01*
X0020793Y0149449D01*
X0020844Y0149348D01*
X0020892Y0149245D01*
X0020936Y0149140D01*
X0020977Y0149035D01*
X0021014Y0148927D01*
X0021047Y0148819D01*
X0021076Y0148709D01*
X0021102Y0148599D01*
X0021124Y0148487D01*
X0021141Y0148375D01*
X0021155Y0148263D01*
X0021165Y0148150D01*
X0021171Y0148036D01*
X0021173Y0147923D01*
X0021171Y0147810D01*
X0021165Y0147696D01*
X0021155Y0147583D01*
X0021141Y0147471D01*
X0021124Y0147359D01*
X0021102Y0147247D01*
X0021076Y0147137D01*
X0021047Y0147027D01*
X0021014Y0146919D01*
X0020977Y0146811D01*
X0020936Y0146706D01*
X0020892Y0146601D01*
X0020844Y0146498D01*
X0020793Y0146397D01*
X0020738Y0146298D01*
X0020679Y0146201D01*
X0020617Y0146106D01*
X0020552Y0146013D01*
X0020484Y0145922D01*
X0020413Y0145834D01*
X0020338Y0145748D01*
X0020261Y0145665D01*
X0020181Y0145585D01*
X0020098Y0145508D01*
X0020012Y0145433D01*
X0019924Y0145362D01*
X0019833Y0145294D01*
X0019740Y0145229D01*
X0019645Y0145167D01*
X0019548Y0145108D01*
X0019449Y0145053D01*
X0019348Y0145002D01*
X0019245Y0144954D01*
X0019140Y0144910D01*
X0019035Y0144869D01*
X0018927Y0144832D01*
X0018819Y0144799D01*
X0018709Y0144770D01*
X0018599Y0144744D01*
X0018487Y0144722D01*
X0018375Y0144705D01*
X0018263Y0144691D01*
X0018150Y0144681D01*
X0018036Y0144675D01*
X0017923Y0144673D01*
X0017810Y0144675D01*
X0017696Y0144681D01*
X0017583Y0144691D01*
X0017471Y0144705D01*
X0017359Y0144722D01*
X0017247Y0144744D01*
X0017137Y0144770D01*
X0017027Y0144799D01*
X0016919Y0144832D01*
X0016811Y0144869D01*
X0016706Y0144910D01*
X0016601Y0144954D01*
X0016498Y0145002D01*
X0016397Y0145053D01*
X0016298Y0145108D01*
X0016201Y0145167D01*
X0016106Y0145229D01*
X0016013Y0145294D01*
X0015922Y0145362D01*
X0015834Y0145433D01*
X0015748Y0145508D01*
X0015665Y0145585D01*
X0015585Y0145665D01*
X0015508Y0145748D01*
X0015433Y0145834D01*
X0015362Y0145922D01*
X0015294Y0146013D01*
X0015229Y0146106D01*
X0015167Y0146201D01*
X0015108Y0146298D01*
X0015053Y0146397D01*
X0015002Y0146498D01*
X0014954Y0146601D01*
X0014910Y0146706D01*
X0014869Y0146811D01*
X0014832Y0146919D01*
X0014799Y0147027D01*
X0014770Y0147137D01*
X0014744Y0147247D01*
X0014722Y0147359D01*
X0014705Y0147471D01*
X0014691Y0147583D01*
X0014681Y0147696D01*
X0014675Y0147810D01*
X0014673Y0147923D01*
X0014673Y0207923D02*
X0014675Y0208036D01*
X0014681Y0208150D01*
X0014691Y0208263D01*
X0014705Y0208375D01*
X0014722Y0208487D01*
X0014744Y0208599D01*
X0014770Y0208709D01*
X0014799Y0208819D01*
X0014832Y0208927D01*
X0014869Y0209035D01*
X0014910Y0209140D01*
X0014954Y0209245D01*
X0015002Y0209348D01*
X0015053Y0209449D01*
X0015108Y0209548D01*
X0015167Y0209645D01*
X0015229Y0209740D01*
X0015294Y0209833D01*
X0015362Y0209924D01*
X0015433Y0210012D01*
X0015508Y0210098D01*
X0015585Y0210181D01*
X0015665Y0210261D01*
X0015748Y0210338D01*
X0015834Y0210413D01*
X0015922Y0210484D01*
X0016013Y0210552D01*
X0016106Y0210617D01*
X0016201Y0210679D01*
X0016298Y0210738D01*
X0016397Y0210793D01*
X0016498Y0210844D01*
X0016601Y0210892D01*
X0016706Y0210936D01*
X0016811Y0210977D01*
X0016919Y0211014D01*
X0017027Y0211047D01*
X0017137Y0211076D01*
X0017247Y0211102D01*
X0017359Y0211124D01*
X0017471Y0211141D01*
X0017583Y0211155D01*
X0017696Y0211165D01*
X0017810Y0211171D01*
X0017923Y0211173D01*
X0018036Y0211171D01*
X0018150Y0211165D01*
X0018263Y0211155D01*
X0018375Y0211141D01*
X0018487Y0211124D01*
X0018599Y0211102D01*
X0018709Y0211076D01*
X0018819Y0211047D01*
X0018927Y0211014D01*
X0019035Y0210977D01*
X0019140Y0210936D01*
X0019245Y0210892D01*
X0019348Y0210844D01*
X0019449Y0210793D01*
X0019548Y0210738D01*
X0019645Y0210679D01*
X0019740Y0210617D01*
X0019833Y0210552D01*
X0019924Y0210484D01*
X0020012Y0210413D01*
X0020098Y0210338D01*
X0020181Y0210261D01*
X0020261Y0210181D01*
X0020338Y0210098D01*
X0020413Y0210012D01*
X0020484Y0209924D01*
X0020552Y0209833D01*
X0020617Y0209740D01*
X0020679Y0209645D01*
X0020738Y0209548D01*
X0020793Y0209449D01*
X0020844Y0209348D01*
X0020892Y0209245D01*
X0020936Y0209140D01*
X0020977Y0209035D01*
X0021014Y0208927D01*
X0021047Y0208819D01*
X0021076Y0208709D01*
X0021102Y0208599D01*
X0021124Y0208487D01*
X0021141Y0208375D01*
X0021155Y0208263D01*
X0021165Y0208150D01*
X0021171Y0208036D01*
X0021173Y0207923D01*
X0021171Y0207810D01*
X0021165Y0207696D01*
X0021155Y0207583D01*
X0021141Y0207471D01*
X0021124Y0207359D01*
X0021102Y0207247D01*
X0021076Y0207137D01*
X0021047Y0207027D01*
X0021014Y0206919D01*
X0020977Y0206811D01*
X0020936Y0206706D01*
X0020892Y0206601D01*
X0020844Y0206498D01*
X0020793Y0206397D01*
X0020738Y0206298D01*
X0020679Y0206201D01*
X0020617Y0206106D01*
X0020552Y0206013D01*
X0020484Y0205922D01*
X0020413Y0205834D01*
X0020338Y0205748D01*
X0020261Y0205665D01*
X0020181Y0205585D01*
X0020098Y0205508D01*
X0020012Y0205433D01*
X0019924Y0205362D01*
X0019833Y0205294D01*
X0019740Y0205229D01*
X0019645Y0205167D01*
X0019548Y0205108D01*
X0019449Y0205053D01*
X0019348Y0205002D01*
X0019245Y0204954D01*
X0019140Y0204910D01*
X0019035Y0204869D01*
X0018927Y0204832D01*
X0018819Y0204799D01*
X0018709Y0204770D01*
X0018599Y0204744D01*
X0018487Y0204722D01*
X0018375Y0204705D01*
X0018263Y0204691D01*
X0018150Y0204681D01*
X0018036Y0204675D01*
X0017923Y0204673D01*
X0017810Y0204675D01*
X0017696Y0204681D01*
X0017583Y0204691D01*
X0017471Y0204705D01*
X0017359Y0204722D01*
X0017247Y0204744D01*
X0017137Y0204770D01*
X0017027Y0204799D01*
X0016919Y0204832D01*
X0016811Y0204869D01*
X0016706Y0204910D01*
X0016601Y0204954D01*
X0016498Y0205002D01*
X0016397Y0205053D01*
X0016298Y0205108D01*
X0016201Y0205167D01*
X0016106Y0205229D01*
X0016013Y0205294D01*
X0015922Y0205362D01*
X0015834Y0205433D01*
X0015748Y0205508D01*
X0015665Y0205585D01*
X0015585Y0205665D01*
X0015508Y0205748D01*
X0015433Y0205834D01*
X0015362Y0205922D01*
X0015294Y0206013D01*
X0015229Y0206106D01*
X0015167Y0206201D01*
X0015108Y0206298D01*
X0015053Y0206397D01*
X0015002Y0206498D01*
X0014954Y0206601D01*
X0014910Y0206706D01*
X0014869Y0206811D01*
X0014832Y0206919D01*
X0014799Y0207027D01*
X0014770Y0207137D01*
X0014744Y0207247D01*
X0014722Y0207359D01*
X0014705Y0207471D01*
X0014691Y0207583D01*
X0014681Y0207696D01*
X0014675Y0207810D01*
X0014673Y0207923D01*
X0119392Y0231223D02*
X0119394Y0231354D01*
X0119400Y0231486D01*
X0119410Y0231617D01*
X0119424Y0231748D01*
X0119442Y0231878D01*
X0119464Y0232007D01*
X0119489Y0232136D01*
X0119519Y0232264D01*
X0119553Y0232391D01*
X0119590Y0232518D01*
X0119631Y0232642D01*
X0119676Y0232766D01*
X0119725Y0232888D01*
X0119777Y0233009D01*
X0119833Y0233127D01*
X0119893Y0233245D01*
X0119956Y0233360D01*
X0120023Y0233473D01*
X0120093Y0233585D01*
X0120166Y0233694D01*
X0120242Y0233800D01*
X0120322Y0233905D01*
X0120405Y0234007D01*
X0120491Y0234106D01*
X0120580Y0234203D01*
X0120672Y0234297D01*
X0120767Y0234388D01*
X0120864Y0234477D01*
X0120964Y0234562D01*
X0121067Y0234644D01*
X0121172Y0234723D01*
X0121279Y0234799D01*
X0121389Y0234871D01*
X0121501Y0234940D01*
X0121615Y0235006D01*
X0121730Y0235068D01*
X0121848Y0235127D01*
X0121967Y0235182D01*
X0122088Y0235234D01*
X0122211Y0235281D01*
X0122335Y0235325D01*
X0122460Y0235366D01*
X0122586Y0235402D01*
X0122714Y0235435D01*
X0122842Y0235463D01*
X0122971Y0235488D01*
X0123101Y0235509D01*
X0123231Y0235526D01*
X0123362Y0235539D01*
X0123493Y0235548D01*
X0123624Y0235553D01*
X0123756Y0235554D01*
X0123887Y0235551D01*
X0124019Y0235544D01*
X0124150Y0235533D01*
X0124280Y0235518D01*
X0124410Y0235499D01*
X0124540Y0235476D01*
X0124668Y0235450D01*
X0124796Y0235419D01*
X0124923Y0235384D01*
X0125049Y0235346D01*
X0125173Y0235304D01*
X0125297Y0235258D01*
X0125418Y0235208D01*
X0125538Y0235155D01*
X0125657Y0235098D01*
X0125774Y0235038D01*
X0125888Y0234974D01*
X0126001Y0234906D01*
X0126112Y0234835D01*
X0126221Y0234761D01*
X0126327Y0234684D01*
X0126431Y0234603D01*
X0126532Y0234520D01*
X0126631Y0234433D01*
X0126727Y0234343D01*
X0126820Y0234250D01*
X0126911Y0234155D01*
X0126998Y0234057D01*
X0127083Y0233956D01*
X0127164Y0233853D01*
X0127242Y0233747D01*
X0127317Y0233639D01*
X0127389Y0233529D01*
X0127457Y0233417D01*
X0127522Y0233303D01*
X0127583Y0233186D01*
X0127641Y0233068D01*
X0127695Y0232948D01*
X0127746Y0232827D01*
X0127793Y0232704D01*
X0127836Y0232580D01*
X0127875Y0232455D01*
X0127911Y0232328D01*
X0127942Y0232200D01*
X0127970Y0232072D01*
X0127994Y0231943D01*
X0128014Y0231813D01*
X0128030Y0231682D01*
X0128042Y0231551D01*
X0128050Y0231420D01*
X0128054Y0231289D01*
X0128054Y0231157D01*
X0128050Y0231026D01*
X0128042Y0230895D01*
X0128030Y0230764D01*
X0128014Y0230633D01*
X0127994Y0230503D01*
X0127970Y0230374D01*
X0127942Y0230246D01*
X0127911Y0230118D01*
X0127875Y0229991D01*
X0127836Y0229866D01*
X0127793Y0229742D01*
X0127746Y0229619D01*
X0127695Y0229498D01*
X0127641Y0229378D01*
X0127583Y0229260D01*
X0127522Y0229143D01*
X0127457Y0229029D01*
X0127389Y0228917D01*
X0127317Y0228807D01*
X0127242Y0228699D01*
X0127164Y0228593D01*
X0127083Y0228490D01*
X0126998Y0228389D01*
X0126911Y0228291D01*
X0126820Y0228196D01*
X0126727Y0228103D01*
X0126631Y0228013D01*
X0126532Y0227926D01*
X0126431Y0227843D01*
X0126327Y0227762D01*
X0126221Y0227685D01*
X0126112Y0227611D01*
X0126001Y0227540D01*
X0125889Y0227472D01*
X0125774Y0227408D01*
X0125657Y0227348D01*
X0125538Y0227291D01*
X0125418Y0227238D01*
X0125297Y0227188D01*
X0125173Y0227142D01*
X0125049Y0227100D01*
X0124923Y0227062D01*
X0124796Y0227027D01*
X0124668Y0226996D01*
X0124540Y0226970D01*
X0124410Y0226947D01*
X0124280Y0226928D01*
X0124150Y0226913D01*
X0124019Y0226902D01*
X0123887Y0226895D01*
X0123756Y0226892D01*
X0123624Y0226893D01*
X0123493Y0226898D01*
X0123362Y0226907D01*
X0123231Y0226920D01*
X0123101Y0226937D01*
X0122971Y0226958D01*
X0122842Y0226983D01*
X0122714Y0227011D01*
X0122586Y0227044D01*
X0122460Y0227080D01*
X0122335Y0227121D01*
X0122211Y0227165D01*
X0122088Y0227212D01*
X0121967Y0227264D01*
X0121848Y0227319D01*
X0121730Y0227378D01*
X0121615Y0227440D01*
X0121501Y0227506D01*
X0121389Y0227575D01*
X0121279Y0227647D01*
X0121172Y0227723D01*
X0121067Y0227802D01*
X0120964Y0227884D01*
X0120864Y0227969D01*
X0120767Y0228058D01*
X0120672Y0228149D01*
X0120580Y0228243D01*
X0120491Y0228340D01*
X0120405Y0228439D01*
X0120322Y0228541D01*
X0120242Y0228646D01*
X0120166Y0228752D01*
X0120093Y0228861D01*
X0120023Y0228973D01*
X0119956Y0229086D01*
X0119893Y0229201D01*
X0119833Y0229319D01*
X0119777Y0229437D01*
X0119725Y0229558D01*
X0119676Y0229680D01*
X0119631Y0229804D01*
X0119590Y0229928D01*
X0119553Y0230055D01*
X0119519Y0230182D01*
X0119489Y0230310D01*
X0119464Y0230439D01*
X0119442Y0230568D01*
X0119424Y0230698D01*
X0119410Y0230829D01*
X0119400Y0230960D01*
X0119394Y0231092D01*
X0119392Y0231223D01*
X0174673Y0207923D02*
X0174675Y0208036D01*
X0174681Y0208150D01*
X0174691Y0208263D01*
X0174705Y0208375D01*
X0174722Y0208487D01*
X0174744Y0208599D01*
X0174770Y0208709D01*
X0174799Y0208819D01*
X0174832Y0208927D01*
X0174869Y0209035D01*
X0174910Y0209140D01*
X0174954Y0209245D01*
X0175002Y0209348D01*
X0175053Y0209449D01*
X0175108Y0209548D01*
X0175167Y0209645D01*
X0175229Y0209740D01*
X0175294Y0209833D01*
X0175362Y0209924D01*
X0175433Y0210012D01*
X0175508Y0210098D01*
X0175585Y0210181D01*
X0175665Y0210261D01*
X0175748Y0210338D01*
X0175834Y0210413D01*
X0175922Y0210484D01*
X0176013Y0210552D01*
X0176106Y0210617D01*
X0176201Y0210679D01*
X0176298Y0210738D01*
X0176397Y0210793D01*
X0176498Y0210844D01*
X0176601Y0210892D01*
X0176706Y0210936D01*
X0176811Y0210977D01*
X0176919Y0211014D01*
X0177027Y0211047D01*
X0177137Y0211076D01*
X0177247Y0211102D01*
X0177359Y0211124D01*
X0177471Y0211141D01*
X0177583Y0211155D01*
X0177696Y0211165D01*
X0177810Y0211171D01*
X0177923Y0211173D01*
X0178036Y0211171D01*
X0178150Y0211165D01*
X0178263Y0211155D01*
X0178375Y0211141D01*
X0178487Y0211124D01*
X0178599Y0211102D01*
X0178709Y0211076D01*
X0178819Y0211047D01*
X0178927Y0211014D01*
X0179035Y0210977D01*
X0179140Y0210936D01*
X0179245Y0210892D01*
X0179348Y0210844D01*
X0179449Y0210793D01*
X0179548Y0210738D01*
X0179645Y0210679D01*
X0179740Y0210617D01*
X0179833Y0210552D01*
X0179924Y0210484D01*
X0180012Y0210413D01*
X0180098Y0210338D01*
X0180181Y0210261D01*
X0180261Y0210181D01*
X0180338Y0210098D01*
X0180413Y0210012D01*
X0180484Y0209924D01*
X0180552Y0209833D01*
X0180617Y0209740D01*
X0180679Y0209645D01*
X0180738Y0209548D01*
X0180793Y0209449D01*
X0180844Y0209348D01*
X0180892Y0209245D01*
X0180936Y0209140D01*
X0180977Y0209035D01*
X0181014Y0208927D01*
X0181047Y0208819D01*
X0181076Y0208709D01*
X0181102Y0208599D01*
X0181124Y0208487D01*
X0181141Y0208375D01*
X0181155Y0208263D01*
X0181165Y0208150D01*
X0181171Y0208036D01*
X0181173Y0207923D01*
X0181171Y0207810D01*
X0181165Y0207696D01*
X0181155Y0207583D01*
X0181141Y0207471D01*
X0181124Y0207359D01*
X0181102Y0207247D01*
X0181076Y0207137D01*
X0181047Y0207027D01*
X0181014Y0206919D01*
X0180977Y0206811D01*
X0180936Y0206706D01*
X0180892Y0206601D01*
X0180844Y0206498D01*
X0180793Y0206397D01*
X0180738Y0206298D01*
X0180679Y0206201D01*
X0180617Y0206106D01*
X0180552Y0206013D01*
X0180484Y0205922D01*
X0180413Y0205834D01*
X0180338Y0205748D01*
X0180261Y0205665D01*
X0180181Y0205585D01*
X0180098Y0205508D01*
X0180012Y0205433D01*
X0179924Y0205362D01*
X0179833Y0205294D01*
X0179740Y0205229D01*
X0179645Y0205167D01*
X0179548Y0205108D01*
X0179449Y0205053D01*
X0179348Y0205002D01*
X0179245Y0204954D01*
X0179140Y0204910D01*
X0179035Y0204869D01*
X0178927Y0204832D01*
X0178819Y0204799D01*
X0178709Y0204770D01*
X0178599Y0204744D01*
X0178487Y0204722D01*
X0178375Y0204705D01*
X0178263Y0204691D01*
X0178150Y0204681D01*
X0178036Y0204675D01*
X0177923Y0204673D01*
X0177810Y0204675D01*
X0177696Y0204681D01*
X0177583Y0204691D01*
X0177471Y0204705D01*
X0177359Y0204722D01*
X0177247Y0204744D01*
X0177137Y0204770D01*
X0177027Y0204799D01*
X0176919Y0204832D01*
X0176811Y0204869D01*
X0176706Y0204910D01*
X0176601Y0204954D01*
X0176498Y0205002D01*
X0176397Y0205053D01*
X0176298Y0205108D01*
X0176201Y0205167D01*
X0176106Y0205229D01*
X0176013Y0205294D01*
X0175922Y0205362D01*
X0175834Y0205433D01*
X0175748Y0205508D01*
X0175665Y0205585D01*
X0175585Y0205665D01*
X0175508Y0205748D01*
X0175433Y0205834D01*
X0175362Y0205922D01*
X0175294Y0206013D01*
X0175229Y0206106D01*
X0175167Y0206201D01*
X0175108Y0206298D01*
X0175053Y0206397D01*
X0175002Y0206498D01*
X0174954Y0206601D01*
X0174910Y0206706D01*
X0174869Y0206811D01*
X0174832Y0206919D01*
X0174799Y0207027D01*
X0174770Y0207137D01*
X0174744Y0207247D01*
X0174722Y0207359D01*
X0174705Y0207471D01*
X0174691Y0207583D01*
X0174681Y0207696D01*
X0174675Y0207810D01*
X0174673Y0207923D01*
X0174673Y0147923D02*
X0174675Y0148036D01*
X0174681Y0148150D01*
X0174691Y0148263D01*
X0174705Y0148375D01*
X0174722Y0148487D01*
X0174744Y0148599D01*
X0174770Y0148709D01*
X0174799Y0148819D01*
X0174832Y0148927D01*
X0174869Y0149035D01*
X0174910Y0149140D01*
X0174954Y0149245D01*
X0175002Y0149348D01*
X0175053Y0149449D01*
X0175108Y0149548D01*
X0175167Y0149645D01*
X0175229Y0149740D01*
X0175294Y0149833D01*
X0175362Y0149924D01*
X0175433Y0150012D01*
X0175508Y0150098D01*
X0175585Y0150181D01*
X0175665Y0150261D01*
X0175748Y0150338D01*
X0175834Y0150413D01*
X0175922Y0150484D01*
X0176013Y0150552D01*
X0176106Y0150617D01*
X0176201Y0150679D01*
X0176298Y0150738D01*
X0176397Y0150793D01*
X0176498Y0150844D01*
X0176601Y0150892D01*
X0176706Y0150936D01*
X0176811Y0150977D01*
X0176919Y0151014D01*
X0177027Y0151047D01*
X0177137Y0151076D01*
X0177247Y0151102D01*
X0177359Y0151124D01*
X0177471Y0151141D01*
X0177583Y0151155D01*
X0177696Y0151165D01*
X0177810Y0151171D01*
X0177923Y0151173D01*
X0178036Y0151171D01*
X0178150Y0151165D01*
X0178263Y0151155D01*
X0178375Y0151141D01*
X0178487Y0151124D01*
X0178599Y0151102D01*
X0178709Y0151076D01*
X0178819Y0151047D01*
X0178927Y0151014D01*
X0179035Y0150977D01*
X0179140Y0150936D01*
X0179245Y0150892D01*
X0179348Y0150844D01*
X0179449Y0150793D01*
X0179548Y0150738D01*
X0179645Y0150679D01*
X0179740Y0150617D01*
X0179833Y0150552D01*
X0179924Y0150484D01*
X0180012Y0150413D01*
X0180098Y0150338D01*
X0180181Y0150261D01*
X0180261Y0150181D01*
X0180338Y0150098D01*
X0180413Y0150012D01*
X0180484Y0149924D01*
X0180552Y0149833D01*
X0180617Y0149740D01*
X0180679Y0149645D01*
X0180738Y0149548D01*
X0180793Y0149449D01*
X0180844Y0149348D01*
X0180892Y0149245D01*
X0180936Y0149140D01*
X0180977Y0149035D01*
X0181014Y0148927D01*
X0181047Y0148819D01*
X0181076Y0148709D01*
X0181102Y0148599D01*
X0181124Y0148487D01*
X0181141Y0148375D01*
X0181155Y0148263D01*
X0181165Y0148150D01*
X0181171Y0148036D01*
X0181173Y0147923D01*
X0181171Y0147810D01*
X0181165Y0147696D01*
X0181155Y0147583D01*
X0181141Y0147471D01*
X0181124Y0147359D01*
X0181102Y0147247D01*
X0181076Y0147137D01*
X0181047Y0147027D01*
X0181014Y0146919D01*
X0180977Y0146811D01*
X0180936Y0146706D01*
X0180892Y0146601D01*
X0180844Y0146498D01*
X0180793Y0146397D01*
X0180738Y0146298D01*
X0180679Y0146201D01*
X0180617Y0146106D01*
X0180552Y0146013D01*
X0180484Y0145922D01*
X0180413Y0145834D01*
X0180338Y0145748D01*
X0180261Y0145665D01*
X0180181Y0145585D01*
X0180098Y0145508D01*
X0180012Y0145433D01*
X0179924Y0145362D01*
X0179833Y0145294D01*
X0179740Y0145229D01*
X0179645Y0145167D01*
X0179548Y0145108D01*
X0179449Y0145053D01*
X0179348Y0145002D01*
X0179245Y0144954D01*
X0179140Y0144910D01*
X0179035Y0144869D01*
X0178927Y0144832D01*
X0178819Y0144799D01*
X0178709Y0144770D01*
X0178599Y0144744D01*
X0178487Y0144722D01*
X0178375Y0144705D01*
X0178263Y0144691D01*
X0178150Y0144681D01*
X0178036Y0144675D01*
X0177923Y0144673D01*
X0177810Y0144675D01*
X0177696Y0144681D01*
X0177583Y0144691D01*
X0177471Y0144705D01*
X0177359Y0144722D01*
X0177247Y0144744D01*
X0177137Y0144770D01*
X0177027Y0144799D01*
X0176919Y0144832D01*
X0176811Y0144869D01*
X0176706Y0144910D01*
X0176601Y0144954D01*
X0176498Y0145002D01*
X0176397Y0145053D01*
X0176298Y0145108D01*
X0176201Y0145167D01*
X0176106Y0145229D01*
X0176013Y0145294D01*
X0175922Y0145362D01*
X0175834Y0145433D01*
X0175748Y0145508D01*
X0175665Y0145585D01*
X0175585Y0145665D01*
X0175508Y0145748D01*
X0175433Y0145834D01*
X0175362Y0145922D01*
X0175294Y0146013D01*
X0175229Y0146106D01*
X0175167Y0146201D01*
X0175108Y0146298D01*
X0175053Y0146397D01*
X0175002Y0146498D01*
X0174954Y0146601D01*
X0174910Y0146706D01*
X0174869Y0146811D01*
X0174832Y0146919D01*
X0174799Y0147027D01*
X0174770Y0147137D01*
X0174744Y0147247D01*
X0174722Y0147359D01*
X0174705Y0147471D01*
X0174691Y0147583D01*
X0174681Y0147696D01*
X0174675Y0147810D01*
X0174673Y0147923D01*
X0119392Y0306223D02*
X0119394Y0306354D01*
X0119400Y0306486D01*
X0119410Y0306617D01*
X0119424Y0306748D01*
X0119442Y0306878D01*
X0119464Y0307007D01*
X0119489Y0307136D01*
X0119519Y0307264D01*
X0119553Y0307391D01*
X0119590Y0307518D01*
X0119631Y0307642D01*
X0119676Y0307766D01*
X0119725Y0307888D01*
X0119777Y0308009D01*
X0119833Y0308127D01*
X0119893Y0308245D01*
X0119956Y0308360D01*
X0120023Y0308473D01*
X0120093Y0308585D01*
X0120166Y0308694D01*
X0120242Y0308800D01*
X0120322Y0308905D01*
X0120405Y0309007D01*
X0120491Y0309106D01*
X0120580Y0309203D01*
X0120672Y0309297D01*
X0120767Y0309388D01*
X0120864Y0309477D01*
X0120964Y0309562D01*
X0121067Y0309644D01*
X0121172Y0309723D01*
X0121279Y0309799D01*
X0121389Y0309871D01*
X0121501Y0309940D01*
X0121615Y0310006D01*
X0121730Y0310068D01*
X0121848Y0310127D01*
X0121967Y0310182D01*
X0122088Y0310234D01*
X0122211Y0310281D01*
X0122335Y0310325D01*
X0122460Y0310366D01*
X0122586Y0310402D01*
X0122714Y0310435D01*
X0122842Y0310463D01*
X0122971Y0310488D01*
X0123101Y0310509D01*
X0123231Y0310526D01*
X0123362Y0310539D01*
X0123493Y0310548D01*
X0123624Y0310553D01*
X0123756Y0310554D01*
X0123887Y0310551D01*
X0124019Y0310544D01*
X0124150Y0310533D01*
X0124280Y0310518D01*
X0124410Y0310499D01*
X0124540Y0310476D01*
X0124668Y0310450D01*
X0124796Y0310419D01*
X0124923Y0310384D01*
X0125049Y0310346D01*
X0125173Y0310304D01*
X0125297Y0310258D01*
X0125418Y0310208D01*
X0125538Y0310155D01*
X0125657Y0310098D01*
X0125774Y0310038D01*
X0125888Y0309974D01*
X0126001Y0309906D01*
X0126112Y0309835D01*
X0126221Y0309761D01*
X0126327Y0309684D01*
X0126431Y0309603D01*
X0126532Y0309520D01*
X0126631Y0309433D01*
X0126727Y0309343D01*
X0126820Y0309250D01*
X0126911Y0309155D01*
X0126998Y0309057D01*
X0127083Y0308956D01*
X0127164Y0308853D01*
X0127242Y0308747D01*
X0127317Y0308639D01*
X0127389Y0308529D01*
X0127457Y0308417D01*
X0127522Y0308303D01*
X0127583Y0308186D01*
X0127641Y0308068D01*
X0127695Y0307948D01*
X0127746Y0307827D01*
X0127793Y0307704D01*
X0127836Y0307580D01*
X0127875Y0307455D01*
X0127911Y0307328D01*
X0127942Y0307200D01*
X0127970Y0307072D01*
X0127994Y0306943D01*
X0128014Y0306813D01*
X0128030Y0306682D01*
X0128042Y0306551D01*
X0128050Y0306420D01*
X0128054Y0306289D01*
X0128054Y0306157D01*
X0128050Y0306026D01*
X0128042Y0305895D01*
X0128030Y0305764D01*
X0128014Y0305633D01*
X0127994Y0305503D01*
X0127970Y0305374D01*
X0127942Y0305246D01*
X0127911Y0305118D01*
X0127875Y0304991D01*
X0127836Y0304866D01*
X0127793Y0304742D01*
X0127746Y0304619D01*
X0127695Y0304498D01*
X0127641Y0304378D01*
X0127583Y0304260D01*
X0127522Y0304143D01*
X0127457Y0304029D01*
X0127389Y0303917D01*
X0127317Y0303807D01*
X0127242Y0303699D01*
X0127164Y0303593D01*
X0127083Y0303490D01*
X0126998Y0303389D01*
X0126911Y0303291D01*
X0126820Y0303196D01*
X0126727Y0303103D01*
X0126631Y0303013D01*
X0126532Y0302926D01*
X0126431Y0302843D01*
X0126327Y0302762D01*
X0126221Y0302685D01*
X0126112Y0302611D01*
X0126001Y0302540D01*
X0125889Y0302472D01*
X0125774Y0302408D01*
X0125657Y0302348D01*
X0125538Y0302291D01*
X0125418Y0302238D01*
X0125297Y0302188D01*
X0125173Y0302142D01*
X0125049Y0302100D01*
X0124923Y0302062D01*
X0124796Y0302027D01*
X0124668Y0301996D01*
X0124540Y0301970D01*
X0124410Y0301947D01*
X0124280Y0301928D01*
X0124150Y0301913D01*
X0124019Y0301902D01*
X0123887Y0301895D01*
X0123756Y0301892D01*
X0123624Y0301893D01*
X0123493Y0301898D01*
X0123362Y0301907D01*
X0123231Y0301920D01*
X0123101Y0301937D01*
X0122971Y0301958D01*
X0122842Y0301983D01*
X0122714Y0302011D01*
X0122586Y0302044D01*
X0122460Y0302080D01*
X0122335Y0302121D01*
X0122211Y0302165D01*
X0122088Y0302212D01*
X0121967Y0302264D01*
X0121848Y0302319D01*
X0121730Y0302378D01*
X0121615Y0302440D01*
X0121501Y0302506D01*
X0121389Y0302575D01*
X0121279Y0302647D01*
X0121172Y0302723D01*
X0121067Y0302802D01*
X0120964Y0302884D01*
X0120864Y0302969D01*
X0120767Y0303058D01*
X0120672Y0303149D01*
X0120580Y0303243D01*
X0120491Y0303340D01*
X0120405Y0303439D01*
X0120322Y0303541D01*
X0120242Y0303646D01*
X0120166Y0303752D01*
X0120093Y0303861D01*
X0120023Y0303973D01*
X0119956Y0304086D01*
X0119893Y0304201D01*
X0119833Y0304319D01*
X0119777Y0304437D01*
X0119725Y0304558D01*
X0119676Y0304680D01*
X0119631Y0304804D01*
X0119590Y0304928D01*
X0119553Y0305055D01*
X0119519Y0305182D01*
X0119489Y0305310D01*
X0119464Y0305439D01*
X0119442Y0305568D01*
X0119424Y0305698D01*
X0119410Y0305829D01*
X0119400Y0305960D01*
X0119394Y0306092D01*
X0119392Y0306223D01*
X0136498Y0317975D02*
X0136500Y0318074D01*
X0136506Y0318173D01*
X0136516Y0318272D01*
X0136530Y0318370D01*
X0136548Y0318467D01*
X0136570Y0318564D01*
X0136595Y0318660D01*
X0136625Y0318754D01*
X0136658Y0318848D01*
X0136695Y0318940D01*
X0136736Y0319030D01*
X0136780Y0319119D01*
X0136828Y0319205D01*
X0136879Y0319290D01*
X0136934Y0319373D01*
X0136992Y0319453D01*
X0137053Y0319531D01*
X0137117Y0319607D01*
X0137184Y0319680D01*
X0137254Y0319750D01*
X0137327Y0319817D01*
X0137403Y0319881D01*
X0137481Y0319942D01*
X0137561Y0320000D01*
X0137644Y0320055D01*
X0137728Y0320106D01*
X0137815Y0320154D01*
X0137904Y0320198D01*
X0137994Y0320239D01*
X0138086Y0320276D01*
X0138180Y0320309D01*
X0138274Y0320339D01*
X0138370Y0320364D01*
X0138467Y0320386D01*
X0138564Y0320404D01*
X0138662Y0320418D01*
X0138761Y0320428D01*
X0138860Y0320434D01*
X0138959Y0320436D01*
X0139058Y0320434D01*
X0139157Y0320428D01*
X0139256Y0320418D01*
X0139354Y0320404D01*
X0139451Y0320386D01*
X0139548Y0320364D01*
X0139644Y0320339D01*
X0139738Y0320309D01*
X0139832Y0320276D01*
X0139924Y0320239D01*
X0140014Y0320198D01*
X0140103Y0320154D01*
X0140189Y0320106D01*
X0140274Y0320055D01*
X0140357Y0320000D01*
X0140437Y0319942D01*
X0140515Y0319881D01*
X0140591Y0319817D01*
X0140664Y0319750D01*
X0140734Y0319680D01*
X0140801Y0319607D01*
X0140865Y0319531D01*
X0140926Y0319453D01*
X0140984Y0319373D01*
X0141039Y0319290D01*
X0141090Y0319206D01*
X0141138Y0319119D01*
X0141182Y0319030D01*
X0141223Y0318940D01*
X0141260Y0318848D01*
X0141293Y0318754D01*
X0141323Y0318660D01*
X0141348Y0318564D01*
X0141370Y0318467D01*
X0141388Y0318370D01*
X0141402Y0318272D01*
X0141412Y0318173D01*
X0141418Y0318074D01*
X0141420Y0317975D01*
X0141418Y0317876D01*
X0141412Y0317777D01*
X0141402Y0317678D01*
X0141388Y0317580D01*
X0141370Y0317483D01*
X0141348Y0317386D01*
X0141323Y0317290D01*
X0141293Y0317196D01*
X0141260Y0317102D01*
X0141223Y0317010D01*
X0141182Y0316920D01*
X0141138Y0316831D01*
X0141090Y0316745D01*
X0141039Y0316660D01*
X0140984Y0316577D01*
X0140926Y0316497D01*
X0140865Y0316419D01*
X0140801Y0316343D01*
X0140734Y0316270D01*
X0140664Y0316200D01*
X0140591Y0316133D01*
X0140515Y0316069D01*
X0140437Y0316008D01*
X0140357Y0315950D01*
X0140274Y0315895D01*
X0140190Y0315844D01*
X0140103Y0315796D01*
X0140014Y0315752D01*
X0139924Y0315711D01*
X0139832Y0315674D01*
X0139738Y0315641D01*
X0139644Y0315611D01*
X0139548Y0315586D01*
X0139451Y0315564D01*
X0139354Y0315546D01*
X0139256Y0315532D01*
X0139157Y0315522D01*
X0139058Y0315516D01*
X0138959Y0315514D01*
X0138860Y0315516D01*
X0138761Y0315522D01*
X0138662Y0315532D01*
X0138564Y0315546D01*
X0138467Y0315564D01*
X0138370Y0315586D01*
X0138274Y0315611D01*
X0138180Y0315641D01*
X0138086Y0315674D01*
X0137994Y0315711D01*
X0137904Y0315752D01*
X0137815Y0315796D01*
X0137729Y0315844D01*
X0137644Y0315895D01*
X0137561Y0315950D01*
X0137481Y0316008D01*
X0137403Y0316069D01*
X0137327Y0316133D01*
X0137254Y0316200D01*
X0137184Y0316270D01*
X0137117Y0316343D01*
X0137053Y0316419D01*
X0136992Y0316497D01*
X0136934Y0316577D01*
X0136879Y0316660D01*
X0136828Y0316744D01*
X0136780Y0316831D01*
X0136736Y0316920D01*
X0136695Y0317010D01*
X0136658Y0317102D01*
X0136625Y0317196D01*
X0136595Y0317290D01*
X0136570Y0317386D01*
X0136548Y0317483D01*
X0136530Y0317580D01*
X0136516Y0317678D01*
X0136506Y0317777D01*
X0136500Y0317876D01*
X0136498Y0317975D01*
X0167994Y0317975D02*
X0167996Y0318074D01*
X0168002Y0318173D01*
X0168012Y0318272D01*
X0168026Y0318370D01*
X0168044Y0318467D01*
X0168066Y0318564D01*
X0168091Y0318660D01*
X0168121Y0318754D01*
X0168154Y0318848D01*
X0168191Y0318940D01*
X0168232Y0319030D01*
X0168276Y0319119D01*
X0168324Y0319205D01*
X0168375Y0319290D01*
X0168430Y0319373D01*
X0168488Y0319453D01*
X0168549Y0319531D01*
X0168613Y0319607D01*
X0168680Y0319680D01*
X0168750Y0319750D01*
X0168823Y0319817D01*
X0168899Y0319881D01*
X0168977Y0319942D01*
X0169057Y0320000D01*
X0169140Y0320055D01*
X0169224Y0320106D01*
X0169311Y0320154D01*
X0169400Y0320198D01*
X0169490Y0320239D01*
X0169582Y0320276D01*
X0169676Y0320309D01*
X0169770Y0320339D01*
X0169866Y0320364D01*
X0169963Y0320386D01*
X0170060Y0320404D01*
X0170158Y0320418D01*
X0170257Y0320428D01*
X0170356Y0320434D01*
X0170455Y0320436D01*
X0170554Y0320434D01*
X0170653Y0320428D01*
X0170752Y0320418D01*
X0170850Y0320404D01*
X0170947Y0320386D01*
X0171044Y0320364D01*
X0171140Y0320339D01*
X0171234Y0320309D01*
X0171328Y0320276D01*
X0171420Y0320239D01*
X0171510Y0320198D01*
X0171599Y0320154D01*
X0171685Y0320106D01*
X0171770Y0320055D01*
X0171853Y0320000D01*
X0171933Y0319942D01*
X0172011Y0319881D01*
X0172087Y0319817D01*
X0172160Y0319750D01*
X0172230Y0319680D01*
X0172297Y0319607D01*
X0172361Y0319531D01*
X0172422Y0319453D01*
X0172480Y0319373D01*
X0172535Y0319290D01*
X0172586Y0319206D01*
X0172634Y0319119D01*
X0172678Y0319030D01*
X0172719Y0318940D01*
X0172756Y0318848D01*
X0172789Y0318754D01*
X0172819Y0318660D01*
X0172844Y0318564D01*
X0172866Y0318467D01*
X0172884Y0318370D01*
X0172898Y0318272D01*
X0172908Y0318173D01*
X0172914Y0318074D01*
X0172916Y0317975D01*
X0172914Y0317876D01*
X0172908Y0317777D01*
X0172898Y0317678D01*
X0172884Y0317580D01*
X0172866Y0317483D01*
X0172844Y0317386D01*
X0172819Y0317290D01*
X0172789Y0317196D01*
X0172756Y0317102D01*
X0172719Y0317010D01*
X0172678Y0316920D01*
X0172634Y0316831D01*
X0172586Y0316745D01*
X0172535Y0316660D01*
X0172480Y0316577D01*
X0172422Y0316497D01*
X0172361Y0316419D01*
X0172297Y0316343D01*
X0172230Y0316270D01*
X0172160Y0316200D01*
X0172087Y0316133D01*
X0172011Y0316069D01*
X0171933Y0316008D01*
X0171853Y0315950D01*
X0171770Y0315895D01*
X0171686Y0315844D01*
X0171599Y0315796D01*
X0171510Y0315752D01*
X0171420Y0315711D01*
X0171328Y0315674D01*
X0171234Y0315641D01*
X0171140Y0315611D01*
X0171044Y0315586D01*
X0170947Y0315564D01*
X0170850Y0315546D01*
X0170752Y0315532D01*
X0170653Y0315522D01*
X0170554Y0315516D01*
X0170455Y0315514D01*
X0170356Y0315516D01*
X0170257Y0315522D01*
X0170158Y0315532D01*
X0170060Y0315546D01*
X0169963Y0315564D01*
X0169866Y0315586D01*
X0169770Y0315611D01*
X0169676Y0315641D01*
X0169582Y0315674D01*
X0169490Y0315711D01*
X0169400Y0315752D01*
X0169311Y0315796D01*
X0169225Y0315844D01*
X0169140Y0315895D01*
X0169057Y0315950D01*
X0168977Y0316008D01*
X0168899Y0316069D01*
X0168823Y0316133D01*
X0168750Y0316200D01*
X0168680Y0316270D01*
X0168613Y0316343D01*
X0168549Y0316419D01*
X0168488Y0316497D01*
X0168430Y0316577D01*
X0168375Y0316660D01*
X0168324Y0316744D01*
X0168276Y0316831D01*
X0168232Y0316920D01*
X0168191Y0317010D01*
X0168154Y0317102D01*
X0168121Y0317196D01*
X0168091Y0317290D01*
X0168066Y0317386D01*
X0168044Y0317483D01*
X0168026Y0317580D01*
X0168012Y0317678D01*
X0168002Y0317777D01*
X0167996Y0317876D01*
X0167994Y0317975D01*
X0224392Y0306223D02*
X0224394Y0306354D01*
X0224400Y0306486D01*
X0224410Y0306617D01*
X0224424Y0306748D01*
X0224442Y0306878D01*
X0224464Y0307007D01*
X0224489Y0307136D01*
X0224519Y0307264D01*
X0224553Y0307391D01*
X0224590Y0307518D01*
X0224631Y0307642D01*
X0224676Y0307766D01*
X0224725Y0307888D01*
X0224777Y0308009D01*
X0224833Y0308127D01*
X0224893Y0308245D01*
X0224956Y0308360D01*
X0225023Y0308473D01*
X0225093Y0308585D01*
X0225166Y0308694D01*
X0225242Y0308800D01*
X0225322Y0308905D01*
X0225405Y0309007D01*
X0225491Y0309106D01*
X0225580Y0309203D01*
X0225672Y0309297D01*
X0225767Y0309388D01*
X0225864Y0309477D01*
X0225964Y0309562D01*
X0226067Y0309644D01*
X0226172Y0309723D01*
X0226279Y0309799D01*
X0226389Y0309871D01*
X0226501Y0309940D01*
X0226615Y0310006D01*
X0226730Y0310068D01*
X0226848Y0310127D01*
X0226967Y0310182D01*
X0227088Y0310234D01*
X0227211Y0310281D01*
X0227335Y0310325D01*
X0227460Y0310366D01*
X0227586Y0310402D01*
X0227714Y0310435D01*
X0227842Y0310463D01*
X0227971Y0310488D01*
X0228101Y0310509D01*
X0228231Y0310526D01*
X0228362Y0310539D01*
X0228493Y0310548D01*
X0228624Y0310553D01*
X0228756Y0310554D01*
X0228887Y0310551D01*
X0229019Y0310544D01*
X0229150Y0310533D01*
X0229280Y0310518D01*
X0229410Y0310499D01*
X0229540Y0310476D01*
X0229668Y0310450D01*
X0229796Y0310419D01*
X0229923Y0310384D01*
X0230049Y0310346D01*
X0230173Y0310304D01*
X0230297Y0310258D01*
X0230418Y0310208D01*
X0230538Y0310155D01*
X0230657Y0310098D01*
X0230774Y0310038D01*
X0230888Y0309974D01*
X0231001Y0309906D01*
X0231112Y0309835D01*
X0231221Y0309761D01*
X0231327Y0309684D01*
X0231431Y0309603D01*
X0231532Y0309520D01*
X0231631Y0309433D01*
X0231727Y0309343D01*
X0231820Y0309250D01*
X0231911Y0309155D01*
X0231998Y0309057D01*
X0232083Y0308956D01*
X0232164Y0308853D01*
X0232242Y0308747D01*
X0232317Y0308639D01*
X0232389Y0308529D01*
X0232457Y0308417D01*
X0232522Y0308303D01*
X0232583Y0308186D01*
X0232641Y0308068D01*
X0232695Y0307948D01*
X0232746Y0307827D01*
X0232793Y0307704D01*
X0232836Y0307580D01*
X0232875Y0307455D01*
X0232911Y0307328D01*
X0232942Y0307200D01*
X0232970Y0307072D01*
X0232994Y0306943D01*
X0233014Y0306813D01*
X0233030Y0306682D01*
X0233042Y0306551D01*
X0233050Y0306420D01*
X0233054Y0306289D01*
X0233054Y0306157D01*
X0233050Y0306026D01*
X0233042Y0305895D01*
X0233030Y0305764D01*
X0233014Y0305633D01*
X0232994Y0305503D01*
X0232970Y0305374D01*
X0232942Y0305246D01*
X0232911Y0305118D01*
X0232875Y0304991D01*
X0232836Y0304866D01*
X0232793Y0304742D01*
X0232746Y0304619D01*
X0232695Y0304498D01*
X0232641Y0304378D01*
X0232583Y0304260D01*
X0232522Y0304143D01*
X0232457Y0304029D01*
X0232389Y0303917D01*
X0232317Y0303807D01*
X0232242Y0303699D01*
X0232164Y0303593D01*
X0232083Y0303490D01*
X0231998Y0303389D01*
X0231911Y0303291D01*
X0231820Y0303196D01*
X0231727Y0303103D01*
X0231631Y0303013D01*
X0231532Y0302926D01*
X0231431Y0302843D01*
X0231327Y0302762D01*
X0231221Y0302685D01*
X0231112Y0302611D01*
X0231001Y0302540D01*
X0230889Y0302472D01*
X0230774Y0302408D01*
X0230657Y0302348D01*
X0230538Y0302291D01*
X0230418Y0302238D01*
X0230297Y0302188D01*
X0230173Y0302142D01*
X0230049Y0302100D01*
X0229923Y0302062D01*
X0229796Y0302027D01*
X0229668Y0301996D01*
X0229540Y0301970D01*
X0229410Y0301947D01*
X0229280Y0301928D01*
X0229150Y0301913D01*
X0229019Y0301902D01*
X0228887Y0301895D01*
X0228756Y0301892D01*
X0228624Y0301893D01*
X0228493Y0301898D01*
X0228362Y0301907D01*
X0228231Y0301920D01*
X0228101Y0301937D01*
X0227971Y0301958D01*
X0227842Y0301983D01*
X0227714Y0302011D01*
X0227586Y0302044D01*
X0227460Y0302080D01*
X0227335Y0302121D01*
X0227211Y0302165D01*
X0227088Y0302212D01*
X0226967Y0302264D01*
X0226848Y0302319D01*
X0226730Y0302378D01*
X0226615Y0302440D01*
X0226501Y0302506D01*
X0226389Y0302575D01*
X0226279Y0302647D01*
X0226172Y0302723D01*
X0226067Y0302802D01*
X0225964Y0302884D01*
X0225864Y0302969D01*
X0225767Y0303058D01*
X0225672Y0303149D01*
X0225580Y0303243D01*
X0225491Y0303340D01*
X0225405Y0303439D01*
X0225322Y0303541D01*
X0225242Y0303646D01*
X0225166Y0303752D01*
X0225093Y0303861D01*
X0225023Y0303973D01*
X0224956Y0304086D01*
X0224893Y0304201D01*
X0224833Y0304319D01*
X0224777Y0304437D01*
X0224725Y0304558D01*
X0224676Y0304680D01*
X0224631Y0304804D01*
X0224590Y0304928D01*
X0224553Y0305055D01*
X0224519Y0305182D01*
X0224489Y0305310D01*
X0224464Y0305439D01*
X0224442Y0305568D01*
X0224424Y0305698D01*
X0224410Y0305829D01*
X0224400Y0305960D01*
X0224394Y0306092D01*
X0224392Y0306223D01*
M02*
