G75*
%MOIN*%
%OFA0B0*%
%FSLAX25Y25*%
%IPPOS*%
%LPD*%
%AMOC8*
5,1,8,0,0,1.08239X$1,22.5*
%
%ADD10C,0.00800*%
%ADD11C,0.00600*%
%ADD12C,0.00500*%
%ADD13C,0.00300*%
%ADD14R,0.02000X0.01500*%
%ADD15C,0.00400*%
%ADD16C,0.00100*%
D10*
X0059825Y0042975D02*
X0122817Y0042975D01*
X0122817Y0133526D01*
X0059825Y0133526D01*
X0059825Y0042975D01*
X0085028Y0036948D02*
X0085028Y0034146D01*
X0086430Y0032745D01*
X0087831Y0034146D01*
X0087831Y0036948D01*
X0089632Y0036948D02*
X0091734Y0036948D01*
X0092435Y0036248D01*
X0092435Y0035547D01*
X0091734Y0034847D01*
X0089632Y0034847D01*
X0089632Y0036948D02*
X0089632Y0032745D01*
X0091734Y0032745D01*
X0092435Y0033445D01*
X0092435Y0034146D01*
X0091734Y0034847D01*
X0094236Y0034847D02*
X0097039Y0034847D01*
X0097039Y0035547D02*
X0097039Y0032745D01*
X0097039Y0035547D02*
X0095637Y0036948D01*
X0094236Y0035547D01*
X0094236Y0032745D01*
X0098840Y0036948D02*
X0101643Y0036948D01*
X0100241Y0036948D02*
X0100241Y0032745D01*
X0103444Y0034847D02*
X0106246Y0034847D01*
X0120970Y0035427D02*
X0125173Y0035427D01*
X0123772Y0034026D01*
X0125173Y0032624D01*
X0120970Y0032624D01*
X0121670Y0030823D02*
X0120970Y0030122D01*
X0120970Y0028721D01*
X0121670Y0028020D01*
X0122371Y0028020D01*
X0123071Y0028721D01*
X0123071Y0030122D01*
X0123772Y0030823D01*
X0124473Y0030823D01*
X0125173Y0030122D01*
X0125173Y0028721D01*
X0124473Y0028020D01*
X0124051Y0018838D02*
X0124051Y0016036D01*
X0122650Y0014635D01*
X0121249Y0016036D01*
X0121249Y0018838D01*
X0125853Y0018838D02*
X0125853Y0014635D01*
X0127955Y0014635D01*
X0128655Y0015335D01*
X0128655Y0016036D01*
X0127955Y0016736D01*
X0125853Y0016736D01*
X0127955Y0016736D02*
X0128655Y0017437D01*
X0128655Y0018138D01*
X0127955Y0018838D01*
X0125853Y0018838D01*
X0130457Y0017437D02*
X0130457Y0014635D01*
X0130457Y0016736D02*
X0133259Y0016736D01*
X0133259Y0017437D02*
X0133259Y0014635D01*
X0133259Y0017437D02*
X0131858Y0018838D01*
X0130457Y0017437D01*
X0135061Y0018838D02*
X0137863Y0018838D01*
X0136462Y0018838D02*
X0136462Y0014635D01*
X0139665Y0016736D02*
X0142467Y0016736D01*
X0141066Y0015335D02*
X0141066Y0018138D01*
X0146439Y0012660D02*
X0146439Y0112660D01*
X0197227Y0112660D01*
X0197227Y0012660D01*
X0146439Y0012660D01*
X0229123Y0018705D02*
X0231925Y0018705D01*
X0230524Y0020106D02*
X0230524Y0017304D01*
X0239359Y0020673D02*
X0242161Y0020673D01*
X0261380Y0046361D02*
X0276380Y0046361D01*
X0051763Y0095256D02*
X0051763Y0098059D01*
X0051062Y0098759D01*
X0048961Y0098759D01*
X0048961Y0094556D01*
X0051062Y0094556D01*
X0051763Y0095256D01*
X0047159Y0094556D02*
X0047159Y0098759D01*
X0044357Y0098759D02*
X0044357Y0094556D01*
X0042555Y0095256D02*
X0042555Y0096658D01*
X0041154Y0096658D01*
X0042555Y0098059D02*
X0041855Y0098759D01*
X0040453Y0098759D01*
X0039753Y0098059D01*
X0039753Y0095256D01*
X0040453Y0094556D01*
X0041855Y0094556D01*
X0042555Y0095256D01*
X0044357Y0098759D02*
X0047159Y0094556D01*
X0038054Y0094254D02*
X0038054Y0099254D01*
X0035554Y0101754D01*
X0038054Y0104254D01*
X0038054Y0109254D01*
X0035554Y0111754D01*
X0030554Y0111754D01*
X0028054Y0109254D01*
X0028054Y0104254D01*
X0030554Y0101754D01*
X0028054Y0099254D01*
X0028054Y0094254D01*
X0030554Y0091754D01*
X0035554Y0091754D01*
X0038054Y0094254D01*
X0041154Y0104005D02*
X0042555Y0105406D01*
X0042555Y0108208D01*
X0044357Y0107508D02*
X0044357Y0104705D01*
X0045057Y0104005D01*
X0046458Y0104005D01*
X0047159Y0104705D01*
X0048961Y0104705D02*
X0048961Y0107508D01*
X0049661Y0108208D01*
X0051062Y0108208D01*
X0051763Y0107508D01*
X0051763Y0104705D02*
X0051062Y0104005D01*
X0049661Y0104005D01*
X0048961Y0104705D01*
X0047159Y0107508D02*
X0046458Y0108208D01*
X0045057Y0108208D01*
X0044357Y0107508D01*
X0039753Y0108208D02*
X0039753Y0105406D01*
X0041154Y0104005D01*
X0032886Y0113760D02*
X0032886Y0116563D01*
X0031485Y0115162D02*
X0034287Y0115162D01*
X0035554Y0117896D02*
X0030554Y0117896D01*
X0028054Y0120396D01*
X0025554Y0117896D01*
X0020554Y0117896D01*
X0018054Y0120396D01*
X0018054Y0125396D01*
X0020554Y0127896D01*
X0025554Y0127896D01*
X0028054Y0125396D01*
X0030554Y0127896D01*
X0035554Y0127896D01*
X0038054Y0125396D01*
X0038054Y0120396D01*
X0035554Y0117896D01*
X0024051Y0115555D02*
X0021249Y0115555D01*
D11*
X0021580Y0129877D02*
X0022715Y0129877D01*
X0023282Y0130444D01*
X0023282Y0133280D01*
X0024696Y0133280D02*
X0026965Y0133280D01*
X0026965Y0132713D01*
X0024696Y0130444D01*
X0024696Y0129877D01*
X0026965Y0129877D01*
X0028379Y0129877D02*
X0030648Y0129877D01*
X0032062Y0129877D02*
X0032062Y0133280D01*
X0034331Y0133280D01*
X0035746Y0133280D02*
X0035746Y0129877D01*
X0035746Y0131011D02*
X0037447Y0131011D01*
X0038014Y0131579D01*
X0038014Y0132713D01*
X0037447Y0133280D01*
X0035746Y0133280D01*
X0036880Y0131011D02*
X0038014Y0129877D01*
X0034331Y0129877D02*
X0032062Y0129877D01*
X0032062Y0131579D02*
X0033197Y0131579D01*
X0030648Y0132713D02*
X0030648Y0133280D01*
X0028379Y0133280D01*
X0030648Y0132713D02*
X0028379Y0130444D01*
X0028379Y0129877D01*
X0021580Y0129877D02*
X0021013Y0130444D01*
X0021013Y0133280D01*
X0019599Y0132713D02*
X0019599Y0132146D01*
X0019031Y0131579D01*
X0017330Y0131579D01*
X0017330Y0133280D02*
X0017330Y0129877D01*
X0019031Y0129877D01*
X0019599Y0130444D01*
X0019599Y0131011D01*
X0019031Y0131579D01*
X0019599Y0132713D02*
X0019031Y0133280D01*
X0017330Y0133280D01*
X0019622Y0174723D02*
X0021757Y0174723D01*
X0022825Y0175790D01*
X0022825Y0181128D01*
X0025000Y0180061D02*
X0025000Y0178993D01*
X0026068Y0177926D01*
X0028203Y0177926D01*
X0029270Y0176858D01*
X0029270Y0175790D01*
X0028203Y0174723D01*
X0026068Y0174723D01*
X0025000Y0175790D01*
X0025000Y0180061D02*
X0026068Y0181128D01*
X0028203Y0181128D01*
X0029270Y0180061D01*
X0031446Y0181128D02*
X0031446Y0174723D01*
X0034648Y0174723D01*
X0035716Y0175790D01*
X0035716Y0176858D01*
X0034648Y0177926D01*
X0031446Y0177926D01*
X0031446Y0181128D02*
X0034648Y0181128D01*
X0035716Y0180061D01*
X0035716Y0178993D01*
X0034648Y0177926D01*
X0019622Y0174723D02*
X0018555Y0175790D01*
X0018555Y0181128D01*
X0027823Y0220523D02*
X0032823Y0220523D01*
X0035323Y0223023D01*
X0035323Y0228023D01*
X0032823Y0230523D01*
X0035323Y0233023D01*
X0035323Y0238023D01*
X0032823Y0240523D01*
X0035323Y0243023D01*
X0035323Y0248023D01*
X0032823Y0250523D01*
X0027823Y0250523D01*
X0025323Y0248023D01*
X0025323Y0243023D01*
X0027823Y0240523D01*
X0025323Y0238023D01*
X0025323Y0233023D01*
X0027823Y0230523D01*
X0025323Y0228023D01*
X0025323Y0223023D01*
X0027823Y0220523D01*
X0038573Y0223302D02*
X0039141Y0222735D01*
X0039708Y0222735D01*
X0040275Y0223302D01*
X0040275Y0224436D01*
X0040842Y0225003D01*
X0041409Y0225003D01*
X0041976Y0224436D01*
X0041976Y0223302D01*
X0041409Y0222735D01*
X0038573Y0223302D02*
X0038573Y0224436D01*
X0039141Y0225003D01*
X0038573Y0226418D02*
X0041976Y0226418D01*
X0041976Y0228686D01*
X0041976Y0230101D02*
X0038573Y0230101D01*
X0038573Y0231802D01*
X0039141Y0232370D01*
X0040275Y0232370D01*
X0040842Y0231802D01*
X0040842Y0230101D01*
X0040842Y0231235D02*
X0041976Y0232370D01*
X0040842Y0233784D02*
X0041976Y0234918D01*
X0040842Y0236053D01*
X0038573Y0236053D01*
X0039141Y0237467D02*
X0041409Y0237467D01*
X0041976Y0238034D01*
X0041976Y0239169D01*
X0041409Y0239736D01*
X0039141Y0239736D01*
X0038573Y0239169D01*
X0038573Y0238034D01*
X0039141Y0237467D01*
X0038573Y0233784D02*
X0040842Y0233784D01*
X0038573Y0228686D02*
X0038573Y0226418D01*
X0040275Y0226418D02*
X0040275Y0227552D01*
X0050323Y0232865D02*
X0050323Y0237865D01*
X0052823Y0240365D01*
X0050323Y0242865D01*
X0050323Y0247865D01*
X0052823Y0250365D01*
X0050323Y0252865D01*
X0050323Y0257865D01*
X0052823Y0260365D01*
X0057823Y0260365D01*
X0060323Y0257865D01*
X0060323Y0252865D01*
X0057823Y0250365D01*
X0060323Y0247865D01*
X0060323Y0242865D01*
X0057823Y0240365D01*
X0060323Y0237865D01*
X0060323Y0232865D01*
X0057823Y0230365D01*
X0052823Y0230365D01*
X0050323Y0232865D01*
X0042544Y0241150D02*
X0042544Y0243419D01*
X0041409Y0244834D02*
X0041976Y0245401D01*
X0041976Y0246535D01*
X0041409Y0247102D01*
X0040842Y0247102D01*
X0040275Y0246535D01*
X0040275Y0245968D01*
X0040275Y0246535D02*
X0039708Y0247102D01*
X0039141Y0247102D01*
X0038573Y0246535D01*
X0038573Y0245401D01*
X0039141Y0244834D01*
X0063573Y0245895D02*
X0065842Y0245895D01*
X0066976Y0244761D01*
X0065842Y0243627D01*
X0063573Y0243627D01*
X0064141Y0242212D02*
X0065275Y0242212D01*
X0065842Y0241645D01*
X0065842Y0239943D01*
X0066976Y0239943D02*
X0063573Y0239943D01*
X0063573Y0241645D01*
X0064141Y0242212D01*
X0065842Y0241078D02*
X0066976Y0242212D01*
X0066976Y0238529D02*
X0066976Y0236260D01*
X0063573Y0236260D01*
X0063573Y0238529D01*
X0065275Y0237395D02*
X0065275Y0236260D01*
X0065842Y0234846D02*
X0065275Y0234279D01*
X0065275Y0233144D01*
X0064708Y0232577D01*
X0064141Y0232577D01*
X0063573Y0233144D01*
X0063573Y0234279D01*
X0064141Y0234846D01*
X0065842Y0234846D02*
X0066409Y0234846D01*
X0066976Y0234279D01*
X0066976Y0233144D01*
X0066409Y0232577D01*
X0075323Y0232865D02*
X0075323Y0237865D01*
X0077823Y0240365D01*
X0075323Y0242865D01*
X0075323Y0247865D01*
X0077823Y0250365D01*
X0075323Y0252865D01*
X0075323Y0257865D01*
X0077823Y0260365D01*
X0082823Y0260365D01*
X0085323Y0257865D01*
X0085323Y0252865D01*
X0082823Y0250365D01*
X0085323Y0247865D01*
X0085323Y0242865D01*
X0082823Y0240365D01*
X0085323Y0237865D01*
X0085323Y0232865D01*
X0082823Y0230365D01*
X0077823Y0230365D01*
X0075323Y0232865D01*
X0088180Y0233144D02*
X0088747Y0232577D01*
X0089314Y0232577D01*
X0089881Y0233144D01*
X0089881Y0234279D01*
X0090448Y0234846D01*
X0091016Y0234846D01*
X0091583Y0234279D01*
X0091583Y0233144D01*
X0091016Y0232577D01*
X0088180Y0233144D02*
X0088180Y0234279D01*
X0088747Y0234846D01*
X0088180Y0236260D02*
X0091583Y0236260D01*
X0091583Y0238529D01*
X0091583Y0239943D02*
X0088180Y0239943D01*
X0088180Y0241645D01*
X0088747Y0242212D01*
X0089881Y0242212D01*
X0090448Y0241645D01*
X0090448Y0239943D01*
X0090448Y0241078D02*
X0091583Y0242212D01*
X0090448Y0243627D02*
X0088180Y0243627D01*
X0088180Y0245895D02*
X0090448Y0245895D01*
X0091583Y0244761D01*
X0090448Y0243627D01*
X0091016Y0247310D02*
X0088747Y0247310D01*
X0088180Y0247877D01*
X0088180Y0249011D01*
X0088747Y0249578D01*
X0091016Y0249578D01*
X0091583Y0249011D01*
X0091583Y0247877D01*
X0091016Y0247310D01*
X0092150Y0250993D02*
X0092150Y0253261D01*
X0091583Y0254676D02*
X0091583Y0256945D01*
X0091583Y0255810D02*
X0088180Y0255810D01*
X0089314Y0254676D01*
X0088180Y0238529D02*
X0088180Y0236260D01*
X0089881Y0236260D02*
X0089881Y0237395D01*
X0066976Y0247877D02*
X0066976Y0249011D01*
X0066409Y0249578D01*
X0064141Y0249578D01*
X0063573Y0249011D01*
X0063573Y0247877D01*
X0064141Y0247310D01*
X0066409Y0247310D01*
X0066976Y0247877D01*
X0067544Y0250993D02*
X0067544Y0253261D01*
X0066976Y0254676D02*
X0064708Y0256945D01*
X0064141Y0256945D01*
X0063573Y0256377D01*
X0063573Y0255243D01*
X0064141Y0254676D01*
X0066976Y0254676D02*
X0066976Y0256945D01*
X0105010Y0315873D02*
X0106144Y0315873D01*
X0106712Y0316440D01*
X0106712Y0319276D01*
X0108126Y0318709D02*
X0108693Y0319276D01*
X0109828Y0319276D01*
X0110395Y0318709D01*
X0109828Y0317575D02*
X0108693Y0317575D01*
X0108126Y0318142D01*
X0108126Y0318709D01*
X0109260Y0319843D02*
X0109260Y0315306D01*
X0108693Y0315873D02*
X0109828Y0315873D01*
X0110395Y0316440D01*
X0110395Y0317008D01*
X0109828Y0317575D01*
X0108126Y0316440D02*
X0108693Y0315873D01*
X0111809Y0315873D02*
X0114078Y0315873D01*
X0112944Y0315873D02*
X0112944Y0319276D01*
X0111809Y0318142D01*
X0105010Y0315873D02*
X0104443Y0316440D01*
X0104443Y0319276D01*
X0202480Y0145910D02*
X0201178Y0144051D01*
X0203966Y0142099D01*
X0205267Y0143958D01*
X0203223Y0144004D02*
X0202572Y0143075D01*
X0200367Y0142892D02*
X0199066Y0141034D01*
X0201853Y0139082D01*
X0203155Y0140941D01*
X0201110Y0140987D02*
X0200460Y0140058D01*
X0200113Y0138574D02*
X0200577Y0138249D01*
X0200717Y0137459D01*
X0199741Y0136065D01*
X0196953Y0138017D01*
X0197929Y0139411D01*
X0198719Y0139550D01*
X0199184Y0139225D01*
X0199323Y0138435D01*
X0198347Y0137041D01*
X0199323Y0138435D02*
X0200113Y0138574D01*
X0198930Y0134907D02*
X0194841Y0135000D01*
X0196142Y0136858D02*
X0197628Y0133048D01*
X0196891Y0112617D02*
X0146891Y0112617D01*
X0146891Y0097617D01*
X0156891Y0102617D01*
X0166891Y0097617D01*
X0181891Y0102617D01*
X0196891Y0097617D01*
X0196891Y0112617D01*
X0210873Y0064989D02*
X0210873Y0061586D01*
X0212008Y0062720D01*
X0213142Y0061586D01*
X0213142Y0064989D01*
X0214556Y0064989D02*
X0215691Y0064989D01*
X0215124Y0064989D02*
X0215124Y0061586D01*
X0215691Y0061586D02*
X0214556Y0061586D01*
X0217012Y0061586D02*
X0217012Y0064989D01*
X0219280Y0061586D01*
X0219280Y0064989D01*
X0220695Y0064989D02*
X0222396Y0064989D01*
X0222964Y0064422D01*
X0222964Y0062153D01*
X0222396Y0061586D01*
X0220695Y0061586D01*
X0220695Y0064989D01*
X0224378Y0061019D02*
X0226647Y0061019D01*
X0228061Y0062153D02*
X0228628Y0061586D01*
X0229763Y0061586D01*
X0230330Y0062153D01*
X0230330Y0062720D01*
X0229763Y0063287D01*
X0228628Y0063287D01*
X0228061Y0063854D01*
X0228061Y0064422D01*
X0228628Y0064989D01*
X0229763Y0064989D01*
X0230330Y0064422D01*
X0231744Y0064989D02*
X0231744Y0061586D01*
X0234013Y0061586D01*
X0235428Y0061586D02*
X0235428Y0064989D01*
X0237696Y0061586D01*
X0237696Y0064989D01*
X0239111Y0064422D02*
X0239111Y0063854D01*
X0239678Y0063287D01*
X0240812Y0063287D01*
X0241379Y0062720D01*
X0241379Y0062153D01*
X0240812Y0061586D01*
X0239678Y0061586D01*
X0239111Y0062153D01*
X0239111Y0064422D02*
X0239678Y0064989D01*
X0240812Y0064989D01*
X0241379Y0064422D01*
X0242794Y0064422D02*
X0243361Y0064989D01*
X0244495Y0064989D01*
X0245062Y0064422D01*
X0245062Y0062153D01*
X0244495Y0061586D01*
X0243361Y0061586D01*
X0242794Y0062153D01*
X0242794Y0064422D01*
X0246477Y0064989D02*
X0248178Y0064989D01*
X0248746Y0064422D01*
X0248746Y0063287D01*
X0248178Y0062720D01*
X0246477Y0062720D01*
X0246477Y0061586D02*
X0246477Y0064989D01*
X0247611Y0062720D02*
X0248746Y0061586D01*
X0245298Y0055711D02*
X0242798Y0058211D01*
X0237798Y0058211D01*
X0235298Y0055711D01*
X0232798Y0058211D01*
X0227798Y0058211D01*
X0225298Y0055711D01*
X0222798Y0058211D01*
X0217798Y0058211D01*
X0215298Y0055711D01*
X0215298Y0050711D01*
X0217798Y0048211D01*
X0222798Y0048211D01*
X0225298Y0050711D01*
X0227798Y0048211D01*
X0232798Y0048211D01*
X0235298Y0050711D01*
X0237798Y0048211D01*
X0242798Y0048211D01*
X0245298Y0050711D01*
X0245298Y0055711D01*
X0232879Y0063287D02*
X0231744Y0063287D01*
X0231744Y0064989D02*
X0234013Y0064989D01*
X0233315Y0039583D02*
X0231046Y0039583D01*
X0231046Y0036180D01*
X0233315Y0036180D01*
X0234729Y0036180D02*
X0234729Y0039583D01*
X0236431Y0039583D01*
X0236998Y0039016D01*
X0236998Y0037882D01*
X0236431Y0037315D01*
X0234729Y0037315D01*
X0235864Y0037315D02*
X0236998Y0036180D01*
X0238413Y0036180D02*
X0238413Y0038449D01*
X0239547Y0039583D01*
X0240681Y0038449D01*
X0240681Y0036180D01*
X0240681Y0037882D02*
X0238413Y0037882D01*
X0238123Y0033223D02*
X0243123Y0033223D01*
X0245623Y0030723D01*
X0245623Y0025723D01*
X0243123Y0023223D01*
X0238123Y0023223D01*
X0235623Y0025723D01*
X0233123Y0023223D01*
X0228123Y0023223D01*
X0225623Y0025723D01*
X0223123Y0023223D01*
X0218123Y0023223D01*
X0215623Y0025723D01*
X0215623Y0030723D01*
X0218123Y0033223D01*
X0223123Y0033223D01*
X0225623Y0030723D01*
X0228123Y0033223D01*
X0233123Y0033223D01*
X0235623Y0030723D01*
X0238123Y0033223D01*
X0232181Y0037882D02*
X0231046Y0037882D01*
X0229632Y0039583D02*
X0229632Y0036180D01*
X0227363Y0036180D02*
X0227363Y0039583D01*
X0228497Y0038449D01*
X0229632Y0039583D01*
X0225949Y0038449D02*
X0225949Y0036180D01*
X0225949Y0037882D02*
X0223680Y0037882D01*
X0223680Y0038449D02*
X0224814Y0039583D01*
X0225949Y0038449D01*
X0223680Y0038449D02*
X0223680Y0036180D01*
X0222265Y0036747D02*
X0221698Y0036180D01*
X0220564Y0036180D01*
X0219997Y0036747D01*
X0219997Y0039016D01*
X0220564Y0039583D01*
X0221698Y0039583D01*
X0222265Y0039016D01*
X0211094Y0039638D02*
X0211094Y0036438D01*
X0208894Y0036438D01*
X0206816Y0030116D02*
X0206816Y0026713D01*
X0207950Y0026713D02*
X0205682Y0026713D01*
X0204267Y0027280D02*
X0203700Y0026713D01*
X0202566Y0026713D01*
X0201999Y0027280D01*
X0201999Y0027847D01*
X0202566Y0028414D01*
X0201999Y0028981D01*
X0201999Y0029549D01*
X0202566Y0030116D01*
X0203700Y0030116D01*
X0204267Y0029549D01*
X0203133Y0028414D02*
X0202566Y0028414D01*
X0202094Y0036438D02*
X0199894Y0036438D01*
X0199894Y0039638D01*
X0199666Y0053842D02*
X0199666Y0055543D01*
X0199099Y0056110D01*
X0197965Y0056110D01*
X0197398Y0055543D01*
X0197398Y0053842D01*
X0200801Y0053842D01*
X0199666Y0054976D02*
X0200801Y0056110D01*
X0200234Y0057525D02*
X0200801Y0058092D01*
X0200801Y0059226D01*
X0200234Y0059793D01*
X0199099Y0059793D01*
X0198532Y0059226D01*
X0198532Y0058659D01*
X0199099Y0057525D01*
X0197398Y0057525D01*
X0197398Y0059793D01*
X0216598Y0019512D02*
X0216031Y0018945D01*
X0216031Y0018378D01*
X0216598Y0017811D01*
X0217732Y0017811D01*
X0218299Y0017244D01*
X0218299Y0016677D01*
X0217732Y0016109D01*
X0216598Y0016109D01*
X0216031Y0016677D01*
X0216598Y0019512D02*
X0217732Y0019512D01*
X0218299Y0018945D01*
X0219714Y0019512D02*
X0220848Y0019512D01*
X0220281Y0019512D02*
X0220281Y0016109D01*
X0219714Y0016109D02*
X0220848Y0016109D01*
X0222169Y0016677D02*
X0222169Y0018945D01*
X0222736Y0019512D01*
X0223871Y0019512D01*
X0224438Y0018945D01*
X0224438Y0017811D02*
X0223304Y0017811D01*
X0224438Y0017811D02*
X0224438Y0016677D01*
X0223871Y0016109D01*
X0222736Y0016109D01*
X0222169Y0016677D01*
X0263964Y0041044D02*
X0266232Y0041044D01*
X0267647Y0041044D02*
X0269916Y0041044D01*
X0271330Y0041044D02*
X0273032Y0041044D01*
X0273599Y0041611D01*
X0273599Y0043880D01*
X0273032Y0044447D01*
X0271330Y0044447D01*
X0271330Y0041044D01*
X0268781Y0042746D02*
X0267647Y0042746D01*
X0267647Y0044447D02*
X0267647Y0041044D01*
X0267647Y0044447D02*
X0269916Y0044447D01*
X0263964Y0044447D02*
X0263964Y0041044D01*
X0258880Y0056361D02*
X0258883Y0056606D01*
X0258892Y0056852D01*
X0258907Y0057097D01*
X0258928Y0057341D01*
X0258955Y0057585D01*
X0258988Y0057828D01*
X0259027Y0058071D01*
X0259072Y0058312D01*
X0259123Y0058552D01*
X0259180Y0058791D01*
X0259242Y0059028D01*
X0259311Y0059264D01*
X0259385Y0059498D01*
X0259465Y0059730D01*
X0259550Y0059960D01*
X0259641Y0060188D01*
X0259738Y0060413D01*
X0259840Y0060637D01*
X0259948Y0060857D01*
X0260061Y0061075D01*
X0260179Y0061290D01*
X0260303Y0061502D01*
X0260431Y0061711D01*
X0260565Y0061917D01*
X0260704Y0062119D01*
X0260848Y0062318D01*
X0260997Y0062513D01*
X0261150Y0062705D01*
X0261308Y0062893D01*
X0261470Y0063077D01*
X0261638Y0063256D01*
X0261809Y0063432D01*
X0261985Y0063603D01*
X0262164Y0063771D01*
X0262348Y0063933D01*
X0262536Y0064091D01*
X0262728Y0064244D01*
X0262923Y0064393D01*
X0263122Y0064537D01*
X0263324Y0064676D01*
X0263530Y0064810D01*
X0263739Y0064938D01*
X0263951Y0065062D01*
X0264166Y0065180D01*
X0264384Y0065293D01*
X0264604Y0065401D01*
X0264828Y0065503D01*
X0265053Y0065600D01*
X0265281Y0065691D01*
X0265511Y0065776D01*
X0265743Y0065856D01*
X0265977Y0065930D01*
X0266213Y0065999D01*
X0266450Y0066061D01*
X0266689Y0066118D01*
X0266929Y0066169D01*
X0267170Y0066214D01*
X0267413Y0066253D01*
X0267656Y0066286D01*
X0267900Y0066313D01*
X0268144Y0066334D01*
X0268389Y0066349D01*
X0268635Y0066358D01*
X0268880Y0066361D01*
X0269125Y0066358D01*
X0269371Y0066349D01*
X0269616Y0066334D01*
X0269860Y0066313D01*
X0270104Y0066286D01*
X0270347Y0066253D01*
X0270590Y0066214D01*
X0270831Y0066169D01*
X0271071Y0066118D01*
X0271310Y0066061D01*
X0271547Y0065999D01*
X0271783Y0065930D01*
X0272017Y0065856D01*
X0272249Y0065776D01*
X0272479Y0065691D01*
X0272707Y0065600D01*
X0272932Y0065503D01*
X0273156Y0065401D01*
X0273376Y0065293D01*
X0273594Y0065180D01*
X0273809Y0065062D01*
X0274021Y0064938D01*
X0274230Y0064810D01*
X0274436Y0064676D01*
X0274638Y0064537D01*
X0274837Y0064393D01*
X0275032Y0064244D01*
X0275224Y0064091D01*
X0275412Y0063933D01*
X0275596Y0063771D01*
X0275775Y0063603D01*
X0275951Y0063432D01*
X0276122Y0063256D01*
X0276290Y0063077D01*
X0276452Y0062893D01*
X0276610Y0062705D01*
X0276763Y0062513D01*
X0276912Y0062318D01*
X0277056Y0062119D01*
X0277195Y0061917D01*
X0277329Y0061711D01*
X0277457Y0061502D01*
X0277581Y0061290D01*
X0277699Y0061075D01*
X0277812Y0060857D01*
X0277920Y0060637D01*
X0278022Y0060413D01*
X0278119Y0060188D01*
X0278210Y0059960D01*
X0278295Y0059730D01*
X0278375Y0059498D01*
X0278449Y0059264D01*
X0278518Y0059028D01*
X0278580Y0058791D01*
X0278637Y0058552D01*
X0278688Y0058312D01*
X0278733Y0058071D01*
X0278772Y0057828D01*
X0278805Y0057585D01*
X0278832Y0057341D01*
X0278853Y0057097D01*
X0278868Y0056852D01*
X0278877Y0056606D01*
X0278880Y0056361D01*
X0278877Y0056116D01*
X0278868Y0055870D01*
X0278853Y0055625D01*
X0278832Y0055381D01*
X0278805Y0055137D01*
X0278772Y0054894D01*
X0278733Y0054651D01*
X0278688Y0054410D01*
X0278637Y0054170D01*
X0278580Y0053931D01*
X0278518Y0053694D01*
X0278449Y0053458D01*
X0278375Y0053224D01*
X0278295Y0052992D01*
X0278210Y0052762D01*
X0278119Y0052534D01*
X0278022Y0052309D01*
X0277920Y0052085D01*
X0277812Y0051865D01*
X0277699Y0051647D01*
X0277581Y0051432D01*
X0277457Y0051220D01*
X0277329Y0051011D01*
X0277195Y0050805D01*
X0277056Y0050603D01*
X0276912Y0050404D01*
X0276763Y0050209D01*
X0276610Y0050017D01*
X0276452Y0049829D01*
X0276290Y0049645D01*
X0276122Y0049466D01*
X0275951Y0049290D01*
X0275775Y0049119D01*
X0275596Y0048951D01*
X0275412Y0048789D01*
X0275224Y0048631D01*
X0275032Y0048478D01*
X0274837Y0048329D01*
X0274638Y0048185D01*
X0274436Y0048046D01*
X0274230Y0047912D01*
X0274021Y0047784D01*
X0273809Y0047660D01*
X0273594Y0047542D01*
X0273376Y0047429D01*
X0273156Y0047321D01*
X0272932Y0047219D01*
X0272707Y0047122D01*
X0272479Y0047031D01*
X0272249Y0046946D01*
X0272017Y0046866D01*
X0271783Y0046792D01*
X0271547Y0046723D01*
X0271310Y0046661D01*
X0271071Y0046604D01*
X0270831Y0046553D01*
X0270590Y0046508D01*
X0270347Y0046469D01*
X0270104Y0046436D01*
X0269860Y0046409D01*
X0269616Y0046388D01*
X0269371Y0046373D01*
X0269125Y0046364D01*
X0268880Y0046361D01*
X0268635Y0046364D01*
X0268389Y0046373D01*
X0268144Y0046388D01*
X0267900Y0046409D01*
X0267656Y0046436D01*
X0267413Y0046469D01*
X0267170Y0046508D01*
X0266929Y0046553D01*
X0266689Y0046604D01*
X0266450Y0046661D01*
X0266213Y0046723D01*
X0265977Y0046792D01*
X0265743Y0046866D01*
X0265511Y0046946D01*
X0265281Y0047031D01*
X0265053Y0047122D01*
X0264828Y0047219D01*
X0264604Y0047321D01*
X0264384Y0047429D01*
X0264166Y0047542D01*
X0263951Y0047660D01*
X0263739Y0047784D01*
X0263530Y0047912D01*
X0263324Y0048046D01*
X0263122Y0048185D01*
X0262923Y0048329D01*
X0262728Y0048478D01*
X0262536Y0048631D01*
X0262348Y0048789D01*
X0262164Y0048951D01*
X0261985Y0049119D01*
X0261809Y0049290D01*
X0261638Y0049466D01*
X0261470Y0049645D01*
X0261308Y0049829D01*
X0261150Y0050017D01*
X0260997Y0050209D01*
X0260848Y0050404D01*
X0260704Y0050603D01*
X0260565Y0050805D01*
X0260431Y0051011D01*
X0260303Y0051220D01*
X0260179Y0051432D01*
X0260061Y0051647D01*
X0259948Y0051865D01*
X0259840Y0052085D01*
X0259738Y0052309D01*
X0259641Y0052534D01*
X0259550Y0052762D01*
X0259465Y0052992D01*
X0259385Y0053224D01*
X0259311Y0053458D01*
X0259242Y0053694D01*
X0259180Y0053931D01*
X0259123Y0054170D01*
X0259072Y0054410D01*
X0259027Y0054651D01*
X0258988Y0054894D01*
X0258955Y0055137D01*
X0258928Y0055381D01*
X0258907Y0055625D01*
X0258892Y0055870D01*
X0258883Y0056116D01*
X0258880Y0056361D01*
X0144843Y0091108D02*
X0141440Y0091108D01*
X0141440Y0092809D01*
X0142008Y0093376D01*
X0143142Y0093376D01*
X0143709Y0092809D01*
X0143709Y0091108D01*
X0144276Y0094791D02*
X0144843Y0095358D01*
X0144843Y0096492D01*
X0144276Y0097060D01*
X0142008Y0097060D01*
X0141440Y0096492D01*
X0141440Y0095358D01*
X0142008Y0094791D01*
X0144276Y0094791D01*
X0144843Y0098474D02*
X0141440Y0098474D01*
X0144843Y0098474D02*
X0144843Y0100743D01*
X0144276Y0102157D02*
X0144843Y0102724D01*
X0144843Y0103859D01*
X0144276Y0104426D01*
X0142008Y0104426D01*
X0141440Y0103859D01*
X0141440Y0102724D01*
X0142008Y0102157D01*
X0144276Y0102157D01*
X0144843Y0105840D02*
X0141440Y0105840D01*
X0144843Y0105840D02*
X0144843Y0108109D01*
X0144276Y0109524D02*
X0141440Y0109524D01*
X0141440Y0111792D02*
X0144276Y0111792D01*
X0144843Y0111225D01*
X0144843Y0110091D01*
X0144276Y0109524D01*
D12*
X0149641Y0108370D02*
X0151142Y0109871D01*
X0151142Y0105367D01*
X0149641Y0105367D02*
X0152643Y0105367D01*
X0159641Y0105367D02*
X0162643Y0108370D01*
X0162643Y0109121D01*
X0161892Y0109871D01*
X0160391Y0109871D01*
X0159641Y0109121D01*
X0159641Y0105367D02*
X0162643Y0105367D01*
X0169641Y0106118D02*
X0170391Y0105367D01*
X0171892Y0105367D01*
X0172643Y0106118D01*
X0172643Y0106869D01*
X0171892Y0107619D01*
X0171142Y0107619D01*
X0171892Y0107619D02*
X0172643Y0108370D01*
X0172643Y0109121D01*
X0171892Y0109871D01*
X0170391Y0109871D01*
X0169641Y0109121D01*
X0179641Y0107619D02*
X0182643Y0107619D01*
X0181892Y0105367D02*
X0181892Y0109871D01*
X0179641Y0107619D01*
X0189641Y0107619D02*
X0191142Y0108370D01*
X0191892Y0108370D01*
X0192643Y0107619D01*
X0192643Y0106118D01*
X0191892Y0105367D01*
X0190391Y0105367D01*
X0189641Y0106118D01*
X0189641Y0107619D02*
X0189641Y0109871D01*
X0192643Y0109871D01*
X0198909Y0131099D02*
X0266634Y0083677D01*
X0305662Y0094799D01*
X0327114Y0125437D01*
X0323088Y0164302D01*
X0255363Y0211724D01*
X0198909Y0131099D01*
X0182923Y0142923D02*
X0165423Y0142923D01*
X0162923Y0145423D01*
X0160423Y0142923D01*
X0165423Y0142923D01*
X0160423Y0142923D02*
X0155423Y0142923D01*
X0152923Y0145423D01*
X0150423Y0142923D01*
X0155423Y0142923D01*
X0150423Y0142923D02*
X0145423Y0142923D01*
X0142923Y0145423D01*
X0140423Y0142923D01*
X0145423Y0142923D01*
X0140423Y0142923D02*
X0135423Y0142923D01*
X0132923Y0145423D01*
X0130423Y0142923D01*
X0135423Y0142923D01*
X0130423Y0142923D02*
X0125423Y0142923D01*
X0122923Y0145423D01*
X0120423Y0142923D01*
X0125423Y0142923D01*
X0120423Y0142923D02*
X0115423Y0142923D01*
X0112923Y0145423D01*
X0110423Y0142923D01*
X0115423Y0142923D01*
X0110423Y0142923D02*
X0105423Y0142923D01*
X0102923Y0145423D01*
X0100423Y0142923D01*
X0105423Y0142923D01*
X0100423Y0142923D02*
X0095423Y0142923D01*
X0092923Y0145423D01*
X0090423Y0142923D01*
X0095423Y0142923D01*
X0090423Y0142923D02*
X0085423Y0142923D01*
X0082923Y0145423D01*
X0080423Y0142923D01*
X0085423Y0142923D01*
X0080423Y0142923D02*
X0075423Y0142923D01*
X0072923Y0145423D01*
X0070423Y0142923D01*
X0075423Y0142923D01*
X0070423Y0142923D02*
X0065423Y0142923D01*
X0062923Y0145423D01*
X0060423Y0142923D01*
X0050423Y0142923D01*
X0052923Y0145423D01*
X0055423Y0142923D01*
X0060423Y0142923D02*
X0065423Y0142923D01*
X0062923Y0150423D02*
X0060423Y0152923D01*
X0055423Y0152923D01*
X0052923Y0150423D01*
X0050423Y0152923D01*
X0045423Y0152923D01*
X0042923Y0150423D01*
X0040423Y0152923D01*
X0035423Y0152923D01*
X0032923Y0150423D01*
X0030423Y0152923D01*
X0025423Y0152923D01*
X0022923Y0150423D01*
X0022923Y0145423D01*
X0025423Y0142923D01*
X0030423Y0142923D01*
X0032923Y0145423D01*
X0035423Y0142923D01*
X0040423Y0142923D01*
X0042923Y0145423D01*
X0045423Y0142923D01*
X0050423Y0142923D01*
X0045423Y0142923D02*
X0040423Y0142923D01*
X0035423Y0142923D02*
X0030423Y0142923D01*
X0025423Y0142923D02*
X0012923Y0142923D01*
X0012923Y0165423D01*
X0007923Y0165423D01*
X0007923Y0190423D01*
X0012923Y0190423D01*
X0042923Y0190423D01*
X0042923Y0165423D01*
X0012923Y0165423D01*
X0012923Y0190423D02*
X0012923Y0212923D01*
X0025423Y0212923D01*
X0022923Y0210423D01*
X0022923Y0205423D01*
X0025423Y0202923D01*
X0030423Y0202923D01*
X0032923Y0205423D01*
X0035423Y0202923D01*
X0040423Y0202923D01*
X0042923Y0205423D01*
X0045423Y0202923D01*
X0050423Y0202923D01*
X0052923Y0205423D01*
X0055423Y0202923D01*
X0060423Y0202923D01*
X0062923Y0205423D01*
X0065423Y0202923D01*
X0070423Y0202923D01*
X0072923Y0205423D01*
X0075423Y0202923D01*
X0080423Y0202923D01*
X0082923Y0205423D01*
X0085423Y0202923D01*
X0090423Y0202923D01*
X0092923Y0205423D01*
X0095423Y0202923D01*
X0100423Y0202923D01*
X0102923Y0205423D01*
X0105423Y0202923D01*
X0110423Y0202923D01*
X0112923Y0205423D01*
X0115423Y0202923D01*
X0120423Y0202923D01*
X0122923Y0205423D01*
X0125423Y0202923D01*
X0130423Y0202923D01*
X0132923Y0205423D01*
X0135423Y0202923D01*
X0140423Y0202923D01*
X0142923Y0205423D01*
X0145423Y0202923D01*
X0150423Y0202923D01*
X0152923Y0205423D01*
X0155423Y0202923D01*
X0160423Y0202923D01*
X0162923Y0205423D01*
X0165423Y0202923D01*
X0170423Y0202923D01*
X0172923Y0205423D01*
X0172923Y0210423D01*
X0170423Y0212923D01*
X0165423Y0212923D02*
X0162923Y0210423D01*
X0160423Y0212923D01*
X0145423Y0212923D01*
X0142923Y0210423D01*
X0140423Y0212923D01*
X0135423Y0212923D02*
X0132923Y0210423D01*
X0130423Y0212923D01*
X0125423Y0212923D02*
X0122923Y0210423D01*
X0120423Y0212923D01*
X0115423Y0212923D02*
X0112923Y0210423D01*
X0110423Y0212923D01*
X0105423Y0212923D02*
X0102923Y0210423D01*
X0100423Y0212923D01*
X0095423Y0212923D02*
X0092923Y0210423D01*
X0090423Y0212923D01*
X0085423Y0212923D02*
X0082923Y0210423D01*
X0080423Y0212923D01*
X0050423Y0212923D01*
X0052923Y0210423D01*
X0055423Y0212923D01*
X0060423Y0212923D02*
X0062923Y0210423D01*
X0065423Y0212923D01*
X0070423Y0212923D02*
X0072923Y0210423D01*
X0075423Y0212923D01*
X0080423Y0212923D02*
X0145423Y0212923D01*
X0150423Y0212923D02*
X0152923Y0210423D01*
X0155423Y0212923D01*
X0160423Y0212923D02*
X0182923Y0212923D01*
X0182923Y0190423D01*
X0182923Y0165423D01*
X0182923Y0142923D01*
X0172923Y0145423D02*
X0172923Y0150423D01*
X0170423Y0152923D01*
X0165423Y0152923D01*
X0162923Y0150423D01*
X0160423Y0152923D01*
X0155423Y0152923D01*
X0152923Y0150423D01*
X0150423Y0152923D01*
X0145423Y0152923D01*
X0142923Y0150423D01*
X0140423Y0152923D01*
X0135423Y0152923D01*
X0132923Y0150423D01*
X0130423Y0152923D01*
X0125423Y0152923D01*
X0122923Y0150423D01*
X0120423Y0152923D01*
X0115423Y0152923D01*
X0112923Y0150423D01*
X0110423Y0152923D01*
X0105423Y0152923D01*
X0102923Y0150423D01*
X0100423Y0152923D01*
X0095423Y0152923D01*
X0092923Y0150423D01*
X0090423Y0152923D01*
X0085423Y0152923D01*
X0082923Y0150423D01*
X0080423Y0152923D01*
X0075423Y0152923D01*
X0072923Y0150423D01*
X0070423Y0152923D01*
X0065423Y0152923D01*
X0062923Y0150423D01*
X0102923Y0167923D02*
X0102923Y0182923D01*
X0112923Y0182923D01*
X0112923Y0167923D01*
X0102923Y0167923D01*
X0104923Y0175423D02*
X0104925Y0175532D01*
X0104931Y0175641D01*
X0104941Y0175749D01*
X0104955Y0175857D01*
X0104972Y0175965D01*
X0104994Y0176072D01*
X0105019Y0176178D01*
X0105049Y0176282D01*
X0105082Y0176386D01*
X0105119Y0176489D01*
X0105159Y0176590D01*
X0105203Y0176689D01*
X0105251Y0176787D01*
X0105303Y0176884D01*
X0105357Y0176978D01*
X0105415Y0177070D01*
X0105477Y0177160D01*
X0105542Y0177247D01*
X0105609Y0177333D01*
X0105680Y0177416D01*
X0105754Y0177496D01*
X0105831Y0177573D01*
X0105910Y0177648D01*
X0105992Y0177719D01*
X0106077Y0177788D01*
X0106164Y0177853D01*
X0106253Y0177916D01*
X0106345Y0177974D01*
X0106439Y0178030D01*
X0106534Y0178082D01*
X0106632Y0178131D01*
X0106731Y0178176D01*
X0106832Y0178218D01*
X0106934Y0178255D01*
X0107037Y0178289D01*
X0107142Y0178320D01*
X0107248Y0178346D01*
X0107354Y0178369D01*
X0107462Y0178387D01*
X0107570Y0178402D01*
X0107678Y0178413D01*
X0107787Y0178420D01*
X0107896Y0178423D01*
X0108005Y0178422D01*
X0108114Y0178417D01*
X0108222Y0178408D01*
X0108330Y0178395D01*
X0108438Y0178378D01*
X0108545Y0178358D01*
X0108651Y0178333D01*
X0108756Y0178305D01*
X0108860Y0178273D01*
X0108963Y0178237D01*
X0109065Y0178197D01*
X0109165Y0178154D01*
X0109263Y0178107D01*
X0109360Y0178057D01*
X0109454Y0178003D01*
X0109547Y0177945D01*
X0109638Y0177885D01*
X0109726Y0177821D01*
X0109812Y0177754D01*
X0109895Y0177684D01*
X0109976Y0177611D01*
X0110054Y0177535D01*
X0110129Y0177456D01*
X0110202Y0177374D01*
X0110271Y0177290D01*
X0110337Y0177204D01*
X0110400Y0177115D01*
X0110460Y0177024D01*
X0110517Y0176931D01*
X0110570Y0176836D01*
X0110619Y0176739D01*
X0110665Y0176640D01*
X0110707Y0176540D01*
X0110746Y0176438D01*
X0110781Y0176334D01*
X0110812Y0176230D01*
X0110840Y0176125D01*
X0110863Y0176018D01*
X0110883Y0175911D01*
X0110899Y0175803D01*
X0110911Y0175695D01*
X0110919Y0175586D01*
X0110923Y0175477D01*
X0110923Y0175369D01*
X0110919Y0175260D01*
X0110911Y0175151D01*
X0110899Y0175043D01*
X0110883Y0174935D01*
X0110863Y0174828D01*
X0110840Y0174721D01*
X0110812Y0174616D01*
X0110781Y0174512D01*
X0110746Y0174408D01*
X0110707Y0174306D01*
X0110665Y0174206D01*
X0110619Y0174107D01*
X0110570Y0174010D01*
X0110517Y0173915D01*
X0110460Y0173822D01*
X0110400Y0173731D01*
X0110337Y0173642D01*
X0110271Y0173556D01*
X0110202Y0173472D01*
X0110129Y0173390D01*
X0110054Y0173311D01*
X0109976Y0173235D01*
X0109895Y0173162D01*
X0109812Y0173092D01*
X0109726Y0173025D01*
X0109638Y0172961D01*
X0109547Y0172901D01*
X0109454Y0172843D01*
X0109360Y0172789D01*
X0109263Y0172739D01*
X0109165Y0172692D01*
X0109065Y0172649D01*
X0108963Y0172609D01*
X0108860Y0172573D01*
X0108756Y0172541D01*
X0108651Y0172513D01*
X0108545Y0172488D01*
X0108438Y0172468D01*
X0108330Y0172451D01*
X0108222Y0172438D01*
X0108114Y0172429D01*
X0108005Y0172424D01*
X0107896Y0172423D01*
X0107787Y0172426D01*
X0107678Y0172433D01*
X0107570Y0172444D01*
X0107462Y0172459D01*
X0107354Y0172477D01*
X0107248Y0172500D01*
X0107142Y0172526D01*
X0107037Y0172557D01*
X0106934Y0172591D01*
X0106832Y0172628D01*
X0106731Y0172670D01*
X0106632Y0172715D01*
X0106534Y0172764D01*
X0106439Y0172816D01*
X0106345Y0172872D01*
X0106253Y0172930D01*
X0106164Y0172993D01*
X0106077Y0173058D01*
X0105992Y0173127D01*
X0105910Y0173198D01*
X0105831Y0173273D01*
X0105754Y0173350D01*
X0105680Y0173430D01*
X0105609Y0173513D01*
X0105542Y0173599D01*
X0105477Y0173686D01*
X0105415Y0173776D01*
X0105357Y0173868D01*
X0105303Y0173962D01*
X0105251Y0174059D01*
X0105203Y0174157D01*
X0105159Y0174256D01*
X0105119Y0174357D01*
X0105082Y0174460D01*
X0105049Y0174564D01*
X0105019Y0174668D01*
X0104994Y0174774D01*
X0104972Y0174881D01*
X0104955Y0174989D01*
X0104941Y0175097D01*
X0104931Y0175205D01*
X0104925Y0175314D01*
X0104923Y0175423D01*
X0092723Y0222723D02*
X0092723Y0314723D01*
X0244723Y0314723D01*
X0244723Y0222723D01*
X0092723Y0222723D01*
X0096223Y0238723D02*
X0093723Y0241223D01*
X0093723Y0246223D01*
X0096223Y0248723D01*
X0093723Y0251223D01*
X0093723Y0256223D01*
X0096223Y0258723D01*
X0093723Y0261223D01*
X0093723Y0266223D01*
X0096223Y0268723D01*
X0093723Y0271223D01*
X0093723Y0276223D01*
X0096223Y0278723D01*
X0093723Y0281223D01*
X0093723Y0286223D01*
X0096223Y0288723D01*
X0093723Y0291223D01*
X0093723Y0296223D01*
X0096223Y0298723D01*
X0101223Y0298723D01*
X0103723Y0296223D01*
X0103723Y0291223D01*
X0101223Y0288723D01*
X0103723Y0286223D01*
X0103723Y0281223D01*
X0101223Y0278723D01*
X0103723Y0276223D01*
X0103723Y0271223D01*
X0101223Y0268723D01*
X0103723Y0266223D01*
X0103723Y0261223D01*
X0101223Y0258723D01*
X0103723Y0256223D01*
X0103723Y0251223D01*
X0101223Y0248723D01*
X0103723Y0246223D01*
X0103723Y0241223D01*
X0101223Y0238723D01*
X0096223Y0238723D01*
X0050423Y0212923D02*
X0045423Y0212923D01*
X0042923Y0210423D01*
X0040423Y0212923D01*
X0035423Y0212923D01*
X0032923Y0210423D01*
X0030423Y0212923D01*
X0025423Y0212923D01*
X0030423Y0212923D02*
X0035423Y0212923D01*
X0040423Y0212923D02*
X0045423Y0212923D01*
X0170423Y0142923D02*
X0172923Y0145423D01*
X0236223Y0248723D02*
X0233723Y0251223D01*
X0233723Y0256223D01*
X0236223Y0258723D01*
X0233723Y0261223D01*
X0233723Y0266223D01*
X0236223Y0268723D01*
X0233723Y0271223D01*
X0233723Y0276223D01*
X0236223Y0278723D01*
X0233723Y0281223D01*
X0233723Y0286223D01*
X0236223Y0288723D01*
X0241223Y0288723D01*
X0243723Y0286223D01*
X0243723Y0281223D01*
X0241223Y0278723D01*
X0243723Y0276223D01*
X0243723Y0271223D01*
X0241223Y0268723D01*
X0243723Y0266223D01*
X0243723Y0261223D01*
X0241223Y0258723D01*
X0243723Y0256223D01*
X0243723Y0251223D01*
X0241223Y0248723D01*
X0236223Y0248723D01*
D13*
X0119773Y0182332D02*
X0116070Y0182332D01*
X0116070Y0181098D02*
X0116070Y0183566D01*
X0116070Y0179883D02*
X0116070Y0177414D01*
X0119773Y0177414D01*
X0119773Y0179883D01*
X0117921Y0178649D02*
X0117921Y0177414D01*
X0118538Y0176200D02*
X0119156Y0176200D01*
X0119773Y0175583D01*
X0119773Y0174348D01*
X0119156Y0173731D01*
X0119773Y0172517D02*
X0119773Y0170048D01*
X0116070Y0170048D01*
X0116070Y0172517D01*
X0116687Y0173731D02*
X0117304Y0173731D01*
X0117921Y0174348D01*
X0117921Y0175583D01*
X0118538Y0176200D01*
X0116687Y0176200D02*
X0116070Y0175583D01*
X0116070Y0174348D01*
X0116687Y0173731D01*
X0117921Y0171283D02*
X0117921Y0170048D01*
X0117921Y0168834D02*
X0118538Y0168217D01*
X0118538Y0166365D01*
X0118538Y0167599D02*
X0119773Y0168834D01*
X0117921Y0168834D02*
X0116687Y0168834D01*
X0116070Y0168217D01*
X0116070Y0166365D01*
X0119773Y0166365D01*
D14*
X0151891Y0113367D03*
X0161891Y0113367D03*
X0171891Y0113367D03*
X0181891Y0113367D03*
X0191891Y0113367D03*
D15*
X0117933Y0241423D02*
X0115631Y0241423D01*
X0115631Y0246027D01*
X0117933Y0246027D01*
X0118700Y0245259D01*
X0118700Y0242190D01*
X0117933Y0241423D01*
X0114096Y0241423D02*
X0114096Y0246027D01*
X0111027Y0246027D02*
X0114096Y0241423D01*
X0111027Y0241423D02*
X0111027Y0246027D01*
X0109492Y0245259D02*
X0108725Y0246027D01*
X0107190Y0246027D01*
X0106423Y0245259D01*
X0106423Y0242190D01*
X0107190Y0241423D01*
X0108725Y0241423D01*
X0109492Y0242190D01*
X0109492Y0243725D01*
X0107957Y0243725D01*
X0107957Y0251423D02*
X0109492Y0252957D01*
X0109492Y0256027D01*
X0111027Y0255259D02*
X0111027Y0252190D01*
X0111794Y0251423D01*
X0113329Y0251423D01*
X0114096Y0252190D01*
X0115631Y0252190D02*
X0116398Y0251423D01*
X0117933Y0251423D01*
X0118700Y0252190D01*
X0115631Y0252190D02*
X0115631Y0255259D01*
X0116398Y0256027D01*
X0117933Y0256027D01*
X0118700Y0255259D01*
X0114096Y0255259D02*
X0113329Y0256027D01*
X0111794Y0256027D01*
X0111027Y0255259D01*
X0107957Y0251423D02*
X0106423Y0252957D01*
X0106423Y0256027D01*
X0107190Y0261423D02*
X0106423Y0262190D01*
X0107190Y0261423D02*
X0108725Y0261423D01*
X0109492Y0262190D01*
X0109492Y0262957D01*
X0108725Y0263725D01*
X0107190Y0263725D01*
X0106423Y0264492D01*
X0106423Y0265259D01*
X0107190Y0266027D01*
X0108725Y0266027D01*
X0109492Y0265259D01*
X0111027Y0266027D02*
X0111027Y0261423D01*
X0113329Y0261423D01*
X0114096Y0262190D01*
X0114096Y0265259D01*
X0113329Y0266027D01*
X0111027Y0266027D01*
X0115631Y0264492D02*
X0115631Y0261423D01*
X0115631Y0263725D02*
X0118700Y0263725D01*
X0118700Y0264492D02*
X0118700Y0261423D01*
X0118700Y0264492D02*
X0117165Y0266027D01*
X0115631Y0264492D01*
X0115631Y0271423D02*
X0118700Y0271423D01*
X0115631Y0271423D02*
X0115631Y0276027D01*
X0114096Y0275259D02*
X0113329Y0276027D01*
X0111794Y0276027D01*
X0111027Y0275259D01*
X0111027Y0272190D01*
X0111794Y0271423D01*
X0113329Y0271423D01*
X0114096Y0272190D01*
X0109492Y0272190D02*
X0108725Y0271423D01*
X0107190Y0271423D01*
X0106423Y0272190D01*
X0107190Y0273725D02*
X0106423Y0274492D01*
X0106423Y0275259D01*
X0107190Y0276027D01*
X0108725Y0276027D01*
X0109492Y0275259D01*
X0108725Y0273725D02*
X0109492Y0272957D01*
X0109492Y0272190D01*
X0108725Y0273725D02*
X0107190Y0273725D01*
X0107190Y0281423D02*
X0106423Y0282190D01*
X0107190Y0281423D02*
X0108725Y0281423D01*
X0109492Y0282190D01*
X0109492Y0282957D01*
X0108725Y0283725D01*
X0107190Y0283725D01*
X0106423Y0284492D01*
X0106423Y0285259D01*
X0107190Y0286027D01*
X0108725Y0286027D01*
X0109492Y0285259D01*
X0111027Y0285259D02*
X0111027Y0282190D01*
X0111794Y0281423D01*
X0113329Y0281423D01*
X0114096Y0282190D01*
X0114096Y0285259D01*
X0113329Y0286027D01*
X0111794Y0286027D01*
X0111027Y0285259D01*
X0112561Y0282957D02*
X0114096Y0281423D01*
X0115631Y0281423D02*
X0117165Y0282957D01*
X0118700Y0281423D01*
X0118700Y0286027D01*
X0115631Y0286027D02*
X0115631Y0281423D01*
X0115631Y0291423D02*
X0115631Y0296027D01*
X0114096Y0295259D02*
X0113329Y0296027D01*
X0111794Y0296027D01*
X0111027Y0295259D01*
X0109492Y0295259D02*
X0109492Y0294492D01*
X0108725Y0293725D01*
X0109492Y0292957D01*
X0109492Y0292190D01*
X0108725Y0291423D01*
X0107190Y0291423D01*
X0106423Y0292190D01*
X0107957Y0293725D02*
X0108725Y0293725D01*
X0109492Y0295259D02*
X0108725Y0296027D01*
X0107190Y0296027D01*
X0106423Y0295259D01*
X0111027Y0291423D02*
X0114096Y0294492D01*
X0114096Y0295259D01*
X0115631Y0292957D02*
X0118700Y0296027D01*
X0116398Y0293725D02*
X0118700Y0291423D01*
X0114096Y0291423D02*
X0111027Y0291423D01*
X0217611Y0285259D02*
X0217611Y0284492D01*
X0218378Y0283725D01*
X0219913Y0283725D01*
X0220680Y0282957D01*
X0220680Y0282190D01*
X0219913Y0281423D01*
X0218378Y0281423D01*
X0217611Y0282190D01*
X0217611Y0285259D02*
X0218378Y0286027D01*
X0219913Y0286027D01*
X0220680Y0285259D01*
X0222215Y0285259D02*
X0222215Y0282190D01*
X0222982Y0281423D01*
X0224517Y0281423D01*
X0225284Y0282190D01*
X0226819Y0281423D02*
X0229888Y0281423D01*
X0226819Y0281423D02*
X0226819Y0286027D01*
X0225284Y0285259D02*
X0224517Y0286027D01*
X0222982Y0286027D01*
X0222215Y0285259D01*
X0222215Y0276027D02*
X0224517Y0276027D01*
X0225284Y0275259D01*
X0225284Y0272190D01*
X0224517Y0271423D01*
X0222215Y0271423D01*
X0222215Y0276027D01*
X0220680Y0275259D02*
X0219913Y0276027D01*
X0218378Y0276027D01*
X0217611Y0275259D01*
X0217611Y0274492D01*
X0218378Y0273725D01*
X0219913Y0273725D01*
X0220680Y0272957D01*
X0220680Y0272190D01*
X0219913Y0271423D01*
X0218378Y0271423D01*
X0217611Y0272190D01*
X0217611Y0266027D02*
X0217611Y0262957D01*
X0219146Y0261423D01*
X0220680Y0262957D01*
X0220680Y0266027D01*
X0222215Y0265259D02*
X0222215Y0262190D01*
X0222982Y0261423D01*
X0224517Y0261423D01*
X0225284Y0262190D01*
X0226819Y0262190D02*
X0227586Y0261423D01*
X0229121Y0261423D01*
X0229888Y0262190D01*
X0226819Y0262190D02*
X0226819Y0265259D01*
X0227586Y0266027D01*
X0229121Y0266027D01*
X0229888Y0265259D01*
X0225284Y0265259D02*
X0224517Y0266027D01*
X0222982Y0266027D01*
X0222215Y0265259D01*
X0226819Y0271423D02*
X0226819Y0274492D01*
X0228354Y0276027D01*
X0229888Y0274492D01*
X0229888Y0271423D01*
X0229888Y0273725D02*
X0226819Y0273725D01*
X0226819Y0256027D02*
X0229121Y0256027D01*
X0229888Y0255259D01*
X0229888Y0252190D01*
X0229121Y0251423D01*
X0226819Y0251423D01*
X0226819Y0256027D01*
X0225284Y0256027D02*
X0225284Y0251423D01*
X0222215Y0256027D01*
X0222215Y0251423D01*
X0220680Y0252190D02*
X0220680Y0253725D01*
X0219146Y0253725D01*
X0220680Y0255259D02*
X0219913Y0256027D01*
X0218378Y0256027D01*
X0217611Y0255259D01*
X0217611Y0252190D01*
X0218378Y0251423D01*
X0219913Y0251423D01*
X0220680Y0252190D01*
D16*
X0276689Y0046032D02*
X0276149Y0046752D01*
X0276150Y0046751D02*
X0276383Y0046932D01*
X0276611Y0047118D01*
X0276835Y0047310D01*
X0277054Y0047507D01*
X0277268Y0047709D01*
X0277477Y0047917D01*
X0277680Y0048130D01*
X0277879Y0048347D01*
X0278072Y0048570D01*
X0278260Y0048797D01*
X0278442Y0049028D01*
X0278619Y0049264D01*
X0278789Y0049505D01*
X0278954Y0049749D01*
X0279112Y0049997D01*
X0279265Y0050249D01*
X0279411Y0050505D01*
X0279551Y0050764D01*
X0279685Y0051027D01*
X0279812Y0051292D01*
X0279933Y0051561D01*
X0280047Y0051833D01*
X0280154Y0052107D01*
X0280255Y0052384D01*
X0280349Y0052663D01*
X0280436Y0052945D01*
X0280516Y0053228D01*
X0280589Y0053514D01*
X0280655Y0053801D01*
X0280714Y0054090D01*
X0280766Y0054380D01*
X0280811Y0054671D01*
X0280849Y0054963D01*
X0280879Y0055256D01*
X0280903Y0055550D01*
X0280919Y0055844D01*
X0280928Y0056138D01*
X0280930Y0056433D01*
X0280924Y0056728D01*
X0280912Y0057022D01*
X0280892Y0057316D01*
X0280865Y0057609D01*
X0280831Y0057902D01*
X0280790Y0058194D01*
X0280741Y0058484D01*
X0280686Y0058774D01*
X0280624Y0059061D01*
X0280554Y0059348D01*
X0280477Y0059632D01*
X0280394Y0059915D01*
X0280304Y0060195D01*
X0280207Y0060473D01*
X0280103Y0060749D01*
X0279992Y0061022D01*
X0279875Y0061292D01*
X0279751Y0061560D01*
X0279621Y0061824D01*
X0279484Y0062085D01*
X0279341Y0062342D01*
X0279191Y0062596D01*
X0279036Y0062847D01*
X0278874Y0063093D01*
X0278707Y0063335D01*
X0278533Y0063573D01*
X0278354Y0063807D01*
X0278169Y0064037D01*
X0277979Y0064261D01*
X0277783Y0064482D01*
X0277582Y0064697D01*
X0277375Y0064907D01*
X0277164Y0065112D01*
X0276947Y0065312D01*
X0276726Y0065507D01*
X0276500Y0065696D01*
X0276270Y0065879D01*
X0276035Y0066057D01*
X0275795Y0066229D01*
X0275552Y0066395D01*
X0275305Y0066555D01*
X0275054Y0066709D01*
X0274799Y0066857D01*
X0274540Y0066999D01*
X0274279Y0067134D01*
X0274014Y0067263D01*
X0273746Y0067385D01*
X0273475Y0067501D01*
X0273201Y0067610D01*
X0272925Y0067712D01*
X0272646Y0067807D01*
X0272365Y0067896D01*
X0272082Y0067978D01*
X0271797Y0068053D01*
X0271510Y0068120D01*
X0271222Y0068181D01*
X0270932Y0068235D01*
X0270641Y0068282D01*
X0270349Y0068321D01*
X0270057Y0068353D01*
X0269763Y0068379D01*
X0269469Y0068397D01*
X0269175Y0068407D01*
X0268880Y0068411D01*
X0268585Y0068407D01*
X0268291Y0068397D01*
X0267997Y0068379D01*
X0267703Y0068353D01*
X0267411Y0068321D01*
X0267119Y0068282D01*
X0266828Y0068235D01*
X0266538Y0068181D01*
X0266250Y0068120D01*
X0265963Y0068053D01*
X0265678Y0067978D01*
X0265395Y0067896D01*
X0265114Y0067807D01*
X0264835Y0067712D01*
X0264559Y0067610D01*
X0264285Y0067501D01*
X0264014Y0067385D01*
X0263746Y0067263D01*
X0263481Y0067134D01*
X0263220Y0066999D01*
X0262961Y0066857D01*
X0262706Y0066709D01*
X0262455Y0066555D01*
X0262208Y0066395D01*
X0261965Y0066229D01*
X0261725Y0066057D01*
X0261490Y0065879D01*
X0261260Y0065696D01*
X0261034Y0065507D01*
X0260813Y0065312D01*
X0260596Y0065112D01*
X0260385Y0064907D01*
X0260178Y0064697D01*
X0259977Y0064482D01*
X0259781Y0064261D01*
X0259591Y0064037D01*
X0259406Y0063807D01*
X0259227Y0063573D01*
X0259053Y0063335D01*
X0258886Y0063093D01*
X0258724Y0062847D01*
X0258569Y0062596D01*
X0258419Y0062342D01*
X0258276Y0062085D01*
X0258139Y0061824D01*
X0258009Y0061560D01*
X0257885Y0061292D01*
X0257768Y0061022D01*
X0257657Y0060749D01*
X0257553Y0060473D01*
X0257456Y0060195D01*
X0257366Y0059915D01*
X0257283Y0059632D01*
X0257206Y0059348D01*
X0257136Y0059061D01*
X0257074Y0058774D01*
X0257019Y0058484D01*
X0256970Y0058194D01*
X0256929Y0057902D01*
X0256895Y0057609D01*
X0256868Y0057316D01*
X0256848Y0057022D01*
X0256836Y0056728D01*
X0256830Y0056433D01*
X0256832Y0056138D01*
X0256841Y0055844D01*
X0256857Y0055550D01*
X0256881Y0055256D01*
X0256911Y0054963D01*
X0256949Y0054671D01*
X0256994Y0054380D01*
X0257046Y0054090D01*
X0257105Y0053801D01*
X0257171Y0053514D01*
X0257244Y0053228D01*
X0257324Y0052945D01*
X0257411Y0052663D01*
X0257505Y0052384D01*
X0257606Y0052107D01*
X0257713Y0051833D01*
X0257827Y0051561D01*
X0257948Y0051292D01*
X0258075Y0051027D01*
X0258209Y0050764D01*
X0258349Y0050505D01*
X0258495Y0050249D01*
X0258648Y0049997D01*
X0258806Y0049749D01*
X0258971Y0049505D01*
X0259141Y0049264D01*
X0259318Y0049028D01*
X0259500Y0048797D01*
X0259688Y0048570D01*
X0259881Y0048347D01*
X0260080Y0048130D01*
X0260283Y0047917D01*
X0260492Y0047709D01*
X0260706Y0047507D01*
X0260925Y0047310D01*
X0261149Y0047118D01*
X0261377Y0046932D01*
X0261610Y0046751D01*
X0261071Y0046032D01*
X0261070Y0046031D01*
X0260820Y0046225D01*
X0260574Y0046425D01*
X0260334Y0046631D01*
X0260099Y0046843D01*
X0259869Y0047061D01*
X0259644Y0047284D01*
X0259425Y0047512D01*
X0259211Y0047746D01*
X0259003Y0047985D01*
X0258801Y0048229D01*
X0258606Y0048478D01*
X0258416Y0048732D01*
X0258233Y0048990D01*
X0258056Y0049252D01*
X0257885Y0049519D01*
X0257721Y0049790D01*
X0257564Y0050065D01*
X0257413Y0050343D01*
X0257269Y0050626D01*
X0257133Y0050911D01*
X0257003Y0051200D01*
X0256880Y0051492D01*
X0256765Y0051787D01*
X0256657Y0052084D01*
X0256556Y0052385D01*
X0256462Y0052687D01*
X0256376Y0052992D01*
X0256297Y0053299D01*
X0256226Y0053607D01*
X0256163Y0053917D01*
X0256107Y0054229D01*
X0256058Y0054542D01*
X0256018Y0054856D01*
X0255985Y0055171D01*
X0255960Y0055487D01*
X0255942Y0055803D01*
X0255932Y0056119D01*
X0255930Y0056436D01*
X0255936Y0056753D01*
X0255949Y0057069D01*
X0255971Y0057385D01*
X0255999Y0057700D01*
X0256036Y0058015D01*
X0256080Y0058328D01*
X0256132Y0058641D01*
X0256192Y0058952D01*
X0256259Y0059261D01*
X0256334Y0059569D01*
X0256416Y0059875D01*
X0256505Y0060178D01*
X0256602Y0060480D01*
X0256707Y0060779D01*
X0256819Y0061075D01*
X0256937Y0061369D01*
X0257063Y0061659D01*
X0257196Y0061946D01*
X0257337Y0062231D01*
X0257484Y0062511D01*
X0257637Y0062788D01*
X0257798Y0063061D01*
X0257965Y0063330D01*
X0258139Y0063595D01*
X0258319Y0063855D01*
X0258505Y0064111D01*
X0258698Y0064362D01*
X0258896Y0064609D01*
X0259101Y0064851D01*
X0259311Y0065087D01*
X0259528Y0065319D01*
X0259750Y0065544D01*
X0259977Y0065765D01*
X0260209Y0065980D01*
X0260447Y0066189D01*
X0260690Y0066392D01*
X0260938Y0066590D01*
X0261190Y0066781D01*
X0261447Y0066966D01*
X0261709Y0067144D01*
X0261975Y0067316D01*
X0262244Y0067482D01*
X0262518Y0067641D01*
X0262796Y0067793D01*
X0263077Y0067938D01*
X0263362Y0068077D01*
X0263650Y0068208D01*
X0263942Y0068332D01*
X0264236Y0068450D01*
X0264533Y0068560D01*
X0264832Y0068662D01*
X0265134Y0068757D01*
X0265438Y0068845D01*
X0265745Y0068926D01*
X0266053Y0068999D01*
X0266363Y0069064D01*
X0266674Y0069122D01*
X0266987Y0069172D01*
X0267301Y0069214D01*
X0267615Y0069249D01*
X0267931Y0069276D01*
X0268247Y0069296D01*
X0268563Y0069307D01*
X0268880Y0069311D01*
X0269197Y0069307D01*
X0269513Y0069296D01*
X0269829Y0069276D01*
X0270145Y0069249D01*
X0270459Y0069214D01*
X0270773Y0069172D01*
X0271086Y0069122D01*
X0271397Y0069064D01*
X0271707Y0068999D01*
X0272015Y0068926D01*
X0272322Y0068845D01*
X0272626Y0068757D01*
X0272928Y0068662D01*
X0273227Y0068560D01*
X0273524Y0068450D01*
X0273818Y0068332D01*
X0274110Y0068208D01*
X0274398Y0068077D01*
X0274683Y0067938D01*
X0274964Y0067793D01*
X0275242Y0067641D01*
X0275516Y0067482D01*
X0275785Y0067316D01*
X0276051Y0067144D01*
X0276313Y0066966D01*
X0276570Y0066781D01*
X0276822Y0066590D01*
X0277070Y0066392D01*
X0277313Y0066189D01*
X0277551Y0065980D01*
X0277783Y0065765D01*
X0278010Y0065544D01*
X0278232Y0065319D01*
X0278449Y0065087D01*
X0278659Y0064851D01*
X0278864Y0064609D01*
X0279062Y0064362D01*
X0279255Y0064111D01*
X0279441Y0063855D01*
X0279621Y0063595D01*
X0279795Y0063330D01*
X0279962Y0063061D01*
X0280123Y0062788D01*
X0280276Y0062511D01*
X0280423Y0062231D01*
X0280564Y0061946D01*
X0280697Y0061659D01*
X0280823Y0061369D01*
X0280941Y0061075D01*
X0281053Y0060779D01*
X0281158Y0060480D01*
X0281255Y0060178D01*
X0281344Y0059875D01*
X0281426Y0059569D01*
X0281501Y0059261D01*
X0281568Y0058952D01*
X0281628Y0058641D01*
X0281680Y0058328D01*
X0281724Y0058015D01*
X0281761Y0057700D01*
X0281789Y0057385D01*
X0281811Y0057069D01*
X0281824Y0056753D01*
X0281830Y0056436D01*
X0281828Y0056119D01*
X0281818Y0055803D01*
X0281800Y0055487D01*
X0281775Y0055171D01*
X0281742Y0054856D01*
X0281702Y0054542D01*
X0281653Y0054229D01*
X0281597Y0053917D01*
X0281534Y0053607D01*
X0281463Y0053299D01*
X0281384Y0052992D01*
X0281298Y0052687D01*
X0281204Y0052385D01*
X0281103Y0052084D01*
X0280995Y0051787D01*
X0280880Y0051492D01*
X0280757Y0051200D01*
X0280627Y0050911D01*
X0280491Y0050626D01*
X0280347Y0050343D01*
X0280196Y0050065D01*
X0280039Y0049790D01*
X0279875Y0049519D01*
X0279704Y0049252D01*
X0279527Y0048990D01*
X0279344Y0048732D01*
X0279154Y0048478D01*
X0278959Y0048229D01*
X0278757Y0047985D01*
X0278549Y0047746D01*
X0278335Y0047512D01*
X0278116Y0047284D01*
X0277891Y0047061D01*
X0277661Y0046843D01*
X0277426Y0046631D01*
X0277186Y0046425D01*
X0276940Y0046225D01*
X0276690Y0046031D01*
X0276634Y0046106D01*
X0276882Y0046299D01*
X0277126Y0046498D01*
X0277364Y0046702D01*
X0277598Y0046912D01*
X0277826Y0047128D01*
X0278049Y0047350D01*
X0278267Y0047577D01*
X0278479Y0047809D01*
X0278685Y0048046D01*
X0278886Y0048288D01*
X0279080Y0048536D01*
X0279268Y0048787D01*
X0279450Y0049044D01*
X0279626Y0049304D01*
X0279795Y0049569D01*
X0279958Y0049838D01*
X0280114Y0050111D01*
X0280264Y0050387D01*
X0280406Y0050667D01*
X0280542Y0050951D01*
X0280671Y0051238D01*
X0280793Y0051528D01*
X0280907Y0051820D01*
X0281015Y0052116D01*
X0281115Y0052414D01*
X0281208Y0052714D01*
X0281293Y0053017D01*
X0281371Y0053321D01*
X0281442Y0053627D01*
X0281505Y0053935D01*
X0281561Y0054245D01*
X0281609Y0054555D01*
X0281649Y0054867D01*
X0281682Y0055180D01*
X0281707Y0055493D01*
X0281724Y0055807D01*
X0281734Y0056121D01*
X0281736Y0056436D01*
X0281730Y0056750D01*
X0281717Y0057064D01*
X0281696Y0057378D01*
X0281667Y0057691D01*
X0281631Y0058003D01*
X0281587Y0058314D01*
X0281535Y0058624D01*
X0281476Y0058933D01*
X0281409Y0059240D01*
X0281335Y0059546D01*
X0281254Y0059849D01*
X0281165Y0060151D01*
X0281068Y0060450D01*
X0280965Y0060747D01*
X0280854Y0061041D01*
X0280736Y0061332D01*
X0280611Y0061621D01*
X0280479Y0061906D01*
X0280340Y0062188D01*
X0280194Y0062466D01*
X0280041Y0062741D01*
X0279882Y0063012D01*
X0279716Y0063279D01*
X0279543Y0063542D01*
X0279365Y0063801D01*
X0279180Y0064055D01*
X0278988Y0064304D01*
X0278791Y0064549D01*
X0278588Y0064789D01*
X0278379Y0065024D01*
X0278164Y0065254D01*
X0277944Y0065478D01*
X0277719Y0065697D01*
X0277488Y0065910D01*
X0277252Y0066118D01*
X0277010Y0066320D01*
X0276765Y0066515D01*
X0276514Y0066705D01*
X0276259Y0066889D01*
X0275999Y0067066D01*
X0275735Y0067237D01*
X0275467Y0067401D01*
X0275195Y0067559D01*
X0274920Y0067710D01*
X0274640Y0067854D01*
X0274358Y0067992D01*
X0274072Y0068122D01*
X0273783Y0068246D01*
X0273490Y0068362D01*
X0273196Y0068471D01*
X0272898Y0068573D01*
X0272599Y0068667D01*
X0272296Y0068755D01*
X0271992Y0068835D01*
X0271687Y0068907D01*
X0271379Y0068972D01*
X0271070Y0069029D01*
X0270759Y0069079D01*
X0270448Y0069121D01*
X0270135Y0069156D01*
X0269822Y0069182D01*
X0269508Y0069202D01*
X0269194Y0069213D01*
X0268880Y0069217D01*
X0268566Y0069213D01*
X0268252Y0069202D01*
X0267938Y0069182D01*
X0267625Y0069156D01*
X0267312Y0069121D01*
X0267001Y0069079D01*
X0266690Y0069029D01*
X0266381Y0068972D01*
X0266073Y0068907D01*
X0265768Y0068835D01*
X0265464Y0068755D01*
X0265161Y0068667D01*
X0264862Y0068573D01*
X0264564Y0068471D01*
X0264270Y0068362D01*
X0263977Y0068246D01*
X0263688Y0068122D01*
X0263402Y0067992D01*
X0263120Y0067854D01*
X0262840Y0067710D01*
X0262565Y0067559D01*
X0262293Y0067401D01*
X0262025Y0067237D01*
X0261761Y0067066D01*
X0261501Y0066889D01*
X0261246Y0066705D01*
X0260995Y0066515D01*
X0260750Y0066320D01*
X0260508Y0066118D01*
X0260272Y0065910D01*
X0260041Y0065697D01*
X0259816Y0065478D01*
X0259596Y0065254D01*
X0259381Y0065024D01*
X0259172Y0064789D01*
X0258969Y0064549D01*
X0258772Y0064304D01*
X0258580Y0064055D01*
X0258395Y0063801D01*
X0258217Y0063542D01*
X0258044Y0063279D01*
X0257878Y0063012D01*
X0257719Y0062741D01*
X0257566Y0062466D01*
X0257420Y0062188D01*
X0257281Y0061906D01*
X0257149Y0061621D01*
X0257024Y0061332D01*
X0256906Y0061041D01*
X0256795Y0060747D01*
X0256692Y0060450D01*
X0256595Y0060151D01*
X0256506Y0059849D01*
X0256425Y0059546D01*
X0256351Y0059240D01*
X0256284Y0058933D01*
X0256225Y0058624D01*
X0256173Y0058314D01*
X0256129Y0058003D01*
X0256093Y0057691D01*
X0256064Y0057378D01*
X0256043Y0057064D01*
X0256030Y0056750D01*
X0256024Y0056436D01*
X0256026Y0056121D01*
X0256036Y0055807D01*
X0256053Y0055493D01*
X0256078Y0055180D01*
X0256111Y0054867D01*
X0256151Y0054555D01*
X0256199Y0054245D01*
X0256255Y0053935D01*
X0256318Y0053627D01*
X0256389Y0053321D01*
X0256467Y0053017D01*
X0256552Y0052714D01*
X0256645Y0052414D01*
X0256745Y0052116D01*
X0256853Y0051820D01*
X0256967Y0051528D01*
X0257089Y0051238D01*
X0257218Y0050951D01*
X0257354Y0050667D01*
X0257496Y0050387D01*
X0257646Y0050111D01*
X0257802Y0049838D01*
X0257965Y0049569D01*
X0258134Y0049304D01*
X0258310Y0049044D01*
X0258492Y0048787D01*
X0258680Y0048536D01*
X0258874Y0048288D01*
X0259075Y0048046D01*
X0259281Y0047809D01*
X0259493Y0047577D01*
X0259711Y0047350D01*
X0259934Y0047128D01*
X0260162Y0046912D01*
X0260396Y0046702D01*
X0260634Y0046498D01*
X0260878Y0046299D01*
X0261126Y0046106D01*
X0261183Y0046181D01*
X0260936Y0046373D01*
X0260694Y0046570D01*
X0260457Y0046773D01*
X0260226Y0046982D01*
X0259999Y0047196D01*
X0259777Y0047416D01*
X0259561Y0047641D01*
X0259351Y0047872D01*
X0259146Y0048107D01*
X0258947Y0048348D01*
X0258754Y0048593D01*
X0258568Y0048843D01*
X0258387Y0049097D01*
X0258212Y0049356D01*
X0258044Y0049619D01*
X0257883Y0049886D01*
X0257728Y0050157D01*
X0257579Y0050431D01*
X0257438Y0050709D01*
X0257303Y0050991D01*
X0257175Y0051275D01*
X0257054Y0051563D01*
X0256940Y0051854D01*
X0256834Y0052147D01*
X0256734Y0052443D01*
X0256642Y0052741D01*
X0256557Y0053041D01*
X0256480Y0053344D01*
X0256410Y0053648D01*
X0256347Y0053953D01*
X0256292Y0054260D01*
X0256244Y0054569D01*
X0256204Y0054878D01*
X0256172Y0055189D01*
X0256147Y0055500D01*
X0256130Y0055811D01*
X0256120Y0056123D01*
X0256118Y0056435D01*
X0256124Y0056747D01*
X0256137Y0057059D01*
X0256158Y0057370D01*
X0256186Y0057681D01*
X0256223Y0057991D01*
X0256266Y0058300D01*
X0256317Y0058608D01*
X0256376Y0058915D01*
X0256442Y0059219D01*
X0256516Y0059523D01*
X0256597Y0059824D01*
X0256685Y0060123D01*
X0256781Y0060420D01*
X0256884Y0060715D01*
X0256994Y0061007D01*
X0257111Y0061296D01*
X0257235Y0061583D01*
X0257366Y0061866D01*
X0257504Y0062146D01*
X0257649Y0062422D01*
X0257801Y0062695D01*
X0257959Y0062964D01*
X0258124Y0063229D01*
X0258295Y0063490D01*
X0258472Y0063746D01*
X0258656Y0063999D01*
X0258846Y0064246D01*
X0259041Y0064489D01*
X0259243Y0064728D01*
X0259451Y0064961D01*
X0259664Y0065189D01*
X0259882Y0065411D01*
X0260106Y0065629D01*
X0260335Y0065840D01*
X0260570Y0066046D01*
X0260809Y0066247D01*
X0261053Y0066441D01*
X0261302Y0066629D01*
X0261555Y0066812D01*
X0261813Y0066988D01*
X0262075Y0067157D01*
X0262341Y0067320D01*
X0262611Y0067477D01*
X0262885Y0067627D01*
X0263162Y0067770D01*
X0263442Y0067907D01*
X0263726Y0068036D01*
X0264013Y0068159D01*
X0264303Y0068274D01*
X0264596Y0068382D01*
X0264891Y0068484D01*
X0265189Y0068578D01*
X0265489Y0068664D01*
X0265790Y0068743D01*
X0266094Y0068815D01*
X0266399Y0068880D01*
X0266706Y0068937D01*
X0267014Y0068986D01*
X0267324Y0069028D01*
X0267634Y0069062D01*
X0267945Y0069089D01*
X0268256Y0069108D01*
X0268568Y0069119D01*
X0268880Y0069123D01*
X0269192Y0069119D01*
X0269504Y0069108D01*
X0269815Y0069089D01*
X0270126Y0069062D01*
X0270436Y0069028D01*
X0270746Y0068986D01*
X0271054Y0068937D01*
X0271361Y0068880D01*
X0271666Y0068815D01*
X0271970Y0068743D01*
X0272271Y0068664D01*
X0272571Y0068578D01*
X0272869Y0068484D01*
X0273164Y0068382D01*
X0273457Y0068274D01*
X0273747Y0068159D01*
X0274034Y0068036D01*
X0274318Y0067907D01*
X0274598Y0067770D01*
X0274875Y0067627D01*
X0275149Y0067477D01*
X0275419Y0067320D01*
X0275685Y0067157D01*
X0275947Y0066988D01*
X0276205Y0066812D01*
X0276458Y0066629D01*
X0276707Y0066441D01*
X0276951Y0066247D01*
X0277190Y0066046D01*
X0277425Y0065840D01*
X0277654Y0065629D01*
X0277878Y0065411D01*
X0278096Y0065189D01*
X0278309Y0064961D01*
X0278517Y0064728D01*
X0278719Y0064489D01*
X0278914Y0064246D01*
X0279104Y0063999D01*
X0279288Y0063746D01*
X0279465Y0063490D01*
X0279636Y0063229D01*
X0279801Y0062964D01*
X0279959Y0062695D01*
X0280111Y0062422D01*
X0280256Y0062146D01*
X0280394Y0061866D01*
X0280525Y0061583D01*
X0280649Y0061296D01*
X0280766Y0061007D01*
X0280876Y0060715D01*
X0280979Y0060420D01*
X0281075Y0060123D01*
X0281163Y0059824D01*
X0281244Y0059523D01*
X0281318Y0059219D01*
X0281384Y0058915D01*
X0281443Y0058608D01*
X0281494Y0058300D01*
X0281537Y0057991D01*
X0281574Y0057681D01*
X0281602Y0057370D01*
X0281623Y0057059D01*
X0281636Y0056747D01*
X0281642Y0056435D01*
X0281640Y0056123D01*
X0281630Y0055811D01*
X0281613Y0055500D01*
X0281588Y0055189D01*
X0281556Y0054878D01*
X0281516Y0054569D01*
X0281468Y0054260D01*
X0281413Y0053953D01*
X0281350Y0053648D01*
X0281280Y0053344D01*
X0281203Y0053041D01*
X0281118Y0052741D01*
X0281026Y0052443D01*
X0280926Y0052147D01*
X0280820Y0051854D01*
X0280706Y0051563D01*
X0280585Y0051275D01*
X0280457Y0050991D01*
X0280322Y0050709D01*
X0280181Y0050431D01*
X0280032Y0050157D01*
X0279877Y0049886D01*
X0279716Y0049619D01*
X0279548Y0049356D01*
X0279373Y0049097D01*
X0279192Y0048843D01*
X0279006Y0048593D01*
X0278813Y0048348D01*
X0278614Y0048107D01*
X0278409Y0047872D01*
X0278199Y0047641D01*
X0277983Y0047416D01*
X0277761Y0047196D01*
X0277534Y0046982D01*
X0277303Y0046773D01*
X0277066Y0046570D01*
X0276824Y0046373D01*
X0276577Y0046181D01*
X0276521Y0046257D01*
X0276766Y0046447D01*
X0277006Y0046642D01*
X0277241Y0046844D01*
X0277471Y0047051D01*
X0277696Y0047264D01*
X0277916Y0047482D01*
X0278130Y0047706D01*
X0278339Y0047935D01*
X0278542Y0048168D01*
X0278740Y0048407D01*
X0278931Y0048650D01*
X0279117Y0048899D01*
X0279296Y0049151D01*
X0279469Y0049408D01*
X0279636Y0049669D01*
X0279797Y0049934D01*
X0279950Y0050203D01*
X0280098Y0050475D01*
X0280238Y0050751D01*
X0280372Y0051031D01*
X0280499Y0051313D01*
X0280619Y0051599D01*
X0280732Y0051887D01*
X0280838Y0052178D01*
X0280936Y0052472D01*
X0281028Y0052768D01*
X0281112Y0053066D01*
X0281189Y0053366D01*
X0281258Y0053668D01*
X0281321Y0053971D01*
X0281375Y0054276D01*
X0281423Y0054582D01*
X0281462Y0054890D01*
X0281494Y0055198D01*
X0281519Y0055506D01*
X0281536Y0055816D01*
X0281546Y0056125D01*
X0281548Y0056435D01*
X0281542Y0056745D01*
X0281529Y0057054D01*
X0281508Y0057363D01*
X0281480Y0057672D01*
X0281444Y0057979D01*
X0281401Y0058286D01*
X0281350Y0058592D01*
X0281292Y0058896D01*
X0281226Y0059199D01*
X0281153Y0059500D01*
X0281073Y0059799D01*
X0280985Y0060096D01*
X0280890Y0060391D01*
X0280788Y0060683D01*
X0280679Y0060973D01*
X0280562Y0061260D01*
X0280439Y0061544D01*
X0280309Y0061825D01*
X0280172Y0062103D01*
X0280028Y0062377D01*
X0279878Y0062648D01*
X0279721Y0062915D01*
X0279557Y0063178D01*
X0279387Y0063437D01*
X0279211Y0063692D01*
X0279029Y0063943D01*
X0278840Y0064188D01*
X0278646Y0064430D01*
X0278446Y0064666D01*
X0278240Y0064897D01*
X0278028Y0065124D01*
X0277811Y0065345D01*
X0277589Y0065560D01*
X0277362Y0065771D01*
X0277129Y0065975D01*
X0276891Y0066174D01*
X0276649Y0066367D01*
X0276402Y0066554D01*
X0276151Y0066735D01*
X0275895Y0066909D01*
X0275635Y0067078D01*
X0275371Y0067240D01*
X0275103Y0067395D01*
X0274831Y0067544D01*
X0274556Y0067686D01*
X0274277Y0067822D01*
X0273996Y0067950D01*
X0273711Y0068072D01*
X0273423Y0068186D01*
X0273132Y0068294D01*
X0272839Y0068394D01*
X0272544Y0068488D01*
X0272246Y0068574D01*
X0271947Y0068652D01*
X0271645Y0068723D01*
X0271342Y0068787D01*
X0271038Y0068844D01*
X0270732Y0068893D01*
X0270425Y0068934D01*
X0270117Y0068968D01*
X0269808Y0068995D01*
X0269499Y0069014D01*
X0269190Y0069025D01*
X0268880Y0069029D01*
X0268570Y0069025D01*
X0268261Y0069014D01*
X0267952Y0068995D01*
X0267643Y0068968D01*
X0267335Y0068934D01*
X0267028Y0068893D01*
X0266722Y0068844D01*
X0266418Y0068787D01*
X0266115Y0068723D01*
X0265813Y0068652D01*
X0265514Y0068574D01*
X0265216Y0068488D01*
X0264921Y0068394D01*
X0264628Y0068294D01*
X0264337Y0068186D01*
X0264049Y0068072D01*
X0263764Y0067950D01*
X0263483Y0067822D01*
X0263204Y0067686D01*
X0262929Y0067544D01*
X0262657Y0067395D01*
X0262389Y0067240D01*
X0262125Y0067078D01*
X0261865Y0066909D01*
X0261609Y0066735D01*
X0261358Y0066554D01*
X0261111Y0066367D01*
X0260869Y0066174D01*
X0260631Y0065975D01*
X0260398Y0065771D01*
X0260171Y0065560D01*
X0259949Y0065345D01*
X0259732Y0065124D01*
X0259520Y0064897D01*
X0259314Y0064666D01*
X0259114Y0064430D01*
X0258920Y0064188D01*
X0258731Y0063943D01*
X0258549Y0063692D01*
X0258373Y0063437D01*
X0258203Y0063178D01*
X0258039Y0062915D01*
X0257882Y0062648D01*
X0257732Y0062377D01*
X0257588Y0062103D01*
X0257451Y0061825D01*
X0257321Y0061544D01*
X0257198Y0061260D01*
X0257081Y0060973D01*
X0256972Y0060683D01*
X0256870Y0060391D01*
X0256775Y0060096D01*
X0256687Y0059799D01*
X0256607Y0059500D01*
X0256534Y0059199D01*
X0256468Y0058896D01*
X0256410Y0058592D01*
X0256359Y0058286D01*
X0256316Y0057979D01*
X0256280Y0057672D01*
X0256252Y0057363D01*
X0256231Y0057054D01*
X0256218Y0056745D01*
X0256212Y0056435D01*
X0256214Y0056125D01*
X0256224Y0055816D01*
X0256241Y0055506D01*
X0256266Y0055198D01*
X0256298Y0054890D01*
X0256337Y0054582D01*
X0256385Y0054276D01*
X0256439Y0053971D01*
X0256502Y0053668D01*
X0256571Y0053366D01*
X0256648Y0053066D01*
X0256732Y0052768D01*
X0256824Y0052472D01*
X0256922Y0052178D01*
X0257028Y0051887D01*
X0257141Y0051599D01*
X0257261Y0051313D01*
X0257388Y0051031D01*
X0257522Y0050751D01*
X0257662Y0050475D01*
X0257810Y0050203D01*
X0257963Y0049934D01*
X0258124Y0049669D01*
X0258291Y0049408D01*
X0258464Y0049151D01*
X0258643Y0048899D01*
X0258829Y0048650D01*
X0259020Y0048407D01*
X0259218Y0048168D01*
X0259421Y0047935D01*
X0259630Y0047706D01*
X0259844Y0047482D01*
X0260064Y0047264D01*
X0260289Y0047051D01*
X0260519Y0046844D01*
X0260754Y0046642D01*
X0260994Y0046447D01*
X0261239Y0046257D01*
X0261296Y0046332D01*
X0261053Y0046520D01*
X0260814Y0046715D01*
X0260581Y0046915D01*
X0260353Y0047120D01*
X0260129Y0047332D01*
X0259911Y0047548D01*
X0259698Y0047770D01*
X0259491Y0047997D01*
X0259289Y0048229D01*
X0259093Y0048466D01*
X0258903Y0048708D01*
X0258719Y0048954D01*
X0258541Y0049205D01*
X0258369Y0049460D01*
X0258204Y0049719D01*
X0258044Y0049982D01*
X0257892Y0050249D01*
X0257745Y0050519D01*
X0257606Y0050793D01*
X0257473Y0051070D01*
X0257347Y0051351D01*
X0257228Y0051634D01*
X0257116Y0051921D01*
X0257011Y0052210D01*
X0256913Y0052501D01*
X0256822Y0052795D01*
X0256739Y0053091D01*
X0256662Y0053388D01*
X0256593Y0053688D01*
X0256532Y0053989D01*
X0256477Y0054292D01*
X0256431Y0054596D01*
X0256391Y0054901D01*
X0256359Y0055206D01*
X0256335Y0055513D01*
X0256318Y0055820D01*
X0256308Y0056127D01*
X0256306Y0056435D01*
X0256312Y0056742D01*
X0256325Y0057049D01*
X0256345Y0057356D01*
X0256374Y0057662D01*
X0256409Y0057968D01*
X0256452Y0058272D01*
X0256503Y0058575D01*
X0256560Y0058877D01*
X0256626Y0059178D01*
X0256698Y0059477D01*
X0256778Y0059773D01*
X0256865Y0060068D01*
X0256959Y0060361D01*
X0257061Y0060651D01*
X0257169Y0060939D01*
X0257284Y0061224D01*
X0257407Y0061506D01*
X0257536Y0061785D01*
X0257672Y0062061D01*
X0257815Y0062333D01*
X0257964Y0062602D01*
X0258120Y0062867D01*
X0258282Y0063128D01*
X0258451Y0063385D01*
X0258626Y0063638D01*
X0258807Y0063886D01*
X0258994Y0064130D01*
X0259187Y0064370D01*
X0259385Y0064604D01*
X0259590Y0064834D01*
X0259800Y0065059D01*
X0260015Y0065278D01*
X0260236Y0065492D01*
X0260461Y0065701D01*
X0260692Y0065904D01*
X0260928Y0066101D01*
X0261169Y0066293D01*
X0261414Y0066478D01*
X0261663Y0066658D01*
X0261917Y0066831D01*
X0262175Y0066998D01*
X0262437Y0067159D01*
X0262703Y0067313D01*
X0262973Y0067461D01*
X0263246Y0067602D01*
X0263523Y0067737D01*
X0263802Y0067864D01*
X0264085Y0067985D01*
X0264371Y0068099D01*
X0264659Y0068205D01*
X0264950Y0068305D01*
X0265243Y0068398D01*
X0265539Y0068483D01*
X0265836Y0068561D01*
X0266135Y0068632D01*
X0266436Y0068695D01*
X0266738Y0068751D01*
X0267042Y0068800D01*
X0267347Y0068841D01*
X0267652Y0068875D01*
X0267958Y0068901D01*
X0268265Y0068920D01*
X0268573Y0068931D01*
X0268880Y0068935D01*
X0269187Y0068931D01*
X0269495Y0068920D01*
X0269802Y0068901D01*
X0270108Y0068875D01*
X0270413Y0068841D01*
X0270718Y0068800D01*
X0271022Y0068751D01*
X0271324Y0068695D01*
X0271625Y0068632D01*
X0271924Y0068561D01*
X0272221Y0068483D01*
X0272517Y0068398D01*
X0272810Y0068305D01*
X0273101Y0068205D01*
X0273389Y0068099D01*
X0273675Y0067985D01*
X0273958Y0067864D01*
X0274237Y0067737D01*
X0274514Y0067602D01*
X0274787Y0067461D01*
X0275057Y0067313D01*
X0275323Y0067159D01*
X0275585Y0066998D01*
X0275843Y0066831D01*
X0276097Y0066658D01*
X0276346Y0066478D01*
X0276591Y0066293D01*
X0276832Y0066101D01*
X0277068Y0065904D01*
X0277299Y0065701D01*
X0277524Y0065492D01*
X0277745Y0065278D01*
X0277960Y0065059D01*
X0278170Y0064834D01*
X0278375Y0064604D01*
X0278573Y0064370D01*
X0278766Y0064130D01*
X0278953Y0063886D01*
X0279134Y0063638D01*
X0279309Y0063385D01*
X0279478Y0063128D01*
X0279640Y0062867D01*
X0279796Y0062602D01*
X0279945Y0062333D01*
X0280088Y0062061D01*
X0280224Y0061785D01*
X0280353Y0061506D01*
X0280476Y0061224D01*
X0280591Y0060939D01*
X0280699Y0060651D01*
X0280801Y0060361D01*
X0280895Y0060068D01*
X0280982Y0059773D01*
X0281062Y0059477D01*
X0281134Y0059178D01*
X0281200Y0058877D01*
X0281257Y0058575D01*
X0281308Y0058272D01*
X0281351Y0057968D01*
X0281386Y0057662D01*
X0281415Y0057356D01*
X0281435Y0057049D01*
X0281448Y0056742D01*
X0281454Y0056435D01*
X0281452Y0056127D01*
X0281442Y0055820D01*
X0281425Y0055513D01*
X0281401Y0055206D01*
X0281369Y0054901D01*
X0281329Y0054596D01*
X0281283Y0054292D01*
X0281228Y0053989D01*
X0281167Y0053688D01*
X0281098Y0053388D01*
X0281021Y0053091D01*
X0280938Y0052795D01*
X0280847Y0052501D01*
X0280749Y0052210D01*
X0280644Y0051921D01*
X0280532Y0051634D01*
X0280413Y0051351D01*
X0280287Y0051070D01*
X0280154Y0050793D01*
X0280015Y0050519D01*
X0279868Y0050249D01*
X0279716Y0049982D01*
X0279556Y0049719D01*
X0279391Y0049460D01*
X0279219Y0049205D01*
X0279041Y0048954D01*
X0278857Y0048708D01*
X0278667Y0048466D01*
X0278471Y0048229D01*
X0278269Y0047997D01*
X0278062Y0047770D01*
X0277849Y0047548D01*
X0277631Y0047332D01*
X0277407Y0047120D01*
X0277179Y0046915D01*
X0276946Y0046715D01*
X0276707Y0046520D01*
X0276464Y0046332D01*
X0276408Y0046407D01*
X0276649Y0046594D01*
X0276886Y0046787D01*
X0277117Y0046986D01*
X0277344Y0047190D01*
X0277566Y0047399D01*
X0277782Y0047614D01*
X0277993Y0047835D01*
X0278199Y0048060D01*
X0278399Y0048290D01*
X0278594Y0048526D01*
X0278782Y0048765D01*
X0278965Y0049010D01*
X0279142Y0049259D01*
X0279312Y0049512D01*
X0279477Y0049769D01*
X0279635Y0050030D01*
X0279786Y0050295D01*
X0279931Y0050563D01*
X0280070Y0050835D01*
X0280202Y0051110D01*
X0280327Y0051389D01*
X0280445Y0051670D01*
X0280556Y0051954D01*
X0280660Y0052241D01*
X0280758Y0052530D01*
X0280848Y0052822D01*
X0280931Y0053115D01*
X0281006Y0053411D01*
X0281075Y0053708D01*
X0281136Y0054007D01*
X0281190Y0054308D01*
X0281236Y0054609D01*
X0281276Y0054912D01*
X0281307Y0055215D01*
X0281332Y0055520D01*
X0281348Y0055824D01*
X0281358Y0056129D01*
X0281360Y0056434D01*
X0281354Y0056739D01*
X0281341Y0057044D01*
X0281321Y0057349D01*
X0281293Y0057653D01*
X0281258Y0057956D01*
X0281215Y0058258D01*
X0281165Y0058559D01*
X0281108Y0058859D01*
X0281043Y0059157D01*
X0280971Y0059453D01*
X0280892Y0059748D01*
X0280805Y0060041D01*
X0280712Y0060331D01*
X0280611Y0060619D01*
X0280503Y0060905D01*
X0280389Y0061188D01*
X0280267Y0061468D01*
X0280139Y0061745D01*
X0280004Y0062018D01*
X0279863Y0062288D01*
X0279714Y0062555D01*
X0279560Y0062818D01*
X0279399Y0063077D01*
X0279231Y0063333D01*
X0279058Y0063584D01*
X0278878Y0063830D01*
X0278692Y0064072D01*
X0278501Y0064310D01*
X0278304Y0064543D01*
X0278101Y0064771D01*
X0277892Y0064994D01*
X0277679Y0065212D01*
X0277460Y0065424D01*
X0277236Y0065631D01*
X0277006Y0065833D01*
X0276772Y0066029D01*
X0276534Y0066219D01*
X0276290Y0066403D01*
X0276043Y0066581D01*
X0275791Y0066753D01*
X0275534Y0066919D01*
X0275274Y0067078D01*
X0275010Y0067232D01*
X0274743Y0067378D01*
X0274472Y0067518D01*
X0274197Y0067652D01*
X0273920Y0067778D01*
X0273639Y0067898D01*
X0273355Y0068011D01*
X0273069Y0068117D01*
X0272781Y0068216D01*
X0272490Y0068308D01*
X0272196Y0068392D01*
X0271901Y0068470D01*
X0271604Y0068540D01*
X0271306Y0068603D01*
X0271006Y0068659D01*
X0270704Y0068707D01*
X0270402Y0068748D01*
X0270099Y0068781D01*
X0269795Y0068807D01*
X0269490Y0068826D01*
X0269185Y0068837D01*
X0268880Y0068841D01*
X0268575Y0068837D01*
X0268270Y0068826D01*
X0267965Y0068807D01*
X0267661Y0068781D01*
X0267358Y0068748D01*
X0267056Y0068707D01*
X0266754Y0068659D01*
X0266454Y0068603D01*
X0266156Y0068540D01*
X0265859Y0068470D01*
X0265564Y0068392D01*
X0265270Y0068308D01*
X0264979Y0068216D01*
X0264691Y0068117D01*
X0264405Y0068011D01*
X0264121Y0067898D01*
X0263840Y0067778D01*
X0263563Y0067652D01*
X0263288Y0067518D01*
X0263017Y0067378D01*
X0262750Y0067232D01*
X0262486Y0067078D01*
X0262226Y0066919D01*
X0261969Y0066753D01*
X0261717Y0066581D01*
X0261470Y0066403D01*
X0261226Y0066219D01*
X0260988Y0066029D01*
X0260754Y0065833D01*
X0260524Y0065631D01*
X0260300Y0065424D01*
X0260081Y0065212D01*
X0259868Y0064994D01*
X0259659Y0064771D01*
X0259456Y0064543D01*
X0259259Y0064310D01*
X0259068Y0064072D01*
X0258882Y0063830D01*
X0258702Y0063584D01*
X0258529Y0063333D01*
X0258361Y0063077D01*
X0258200Y0062818D01*
X0258046Y0062555D01*
X0257897Y0062288D01*
X0257756Y0062018D01*
X0257621Y0061745D01*
X0257493Y0061468D01*
X0257371Y0061188D01*
X0257257Y0060905D01*
X0257149Y0060619D01*
X0257048Y0060331D01*
X0256955Y0060041D01*
X0256868Y0059748D01*
X0256789Y0059453D01*
X0256717Y0059157D01*
X0256652Y0058859D01*
X0256595Y0058559D01*
X0256545Y0058258D01*
X0256502Y0057956D01*
X0256467Y0057653D01*
X0256439Y0057349D01*
X0256419Y0057044D01*
X0256406Y0056739D01*
X0256400Y0056434D01*
X0256402Y0056129D01*
X0256412Y0055824D01*
X0256428Y0055520D01*
X0256453Y0055215D01*
X0256484Y0054912D01*
X0256524Y0054609D01*
X0256570Y0054308D01*
X0256624Y0054007D01*
X0256685Y0053708D01*
X0256754Y0053411D01*
X0256829Y0053115D01*
X0256912Y0052822D01*
X0257002Y0052530D01*
X0257100Y0052241D01*
X0257204Y0051954D01*
X0257315Y0051670D01*
X0257433Y0051389D01*
X0257558Y0051110D01*
X0257690Y0050835D01*
X0257829Y0050563D01*
X0257974Y0050295D01*
X0258125Y0050030D01*
X0258283Y0049769D01*
X0258448Y0049512D01*
X0258618Y0049259D01*
X0258795Y0049010D01*
X0258978Y0048765D01*
X0259166Y0048526D01*
X0259361Y0048290D01*
X0259561Y0048060D01*
X0259767Y0047835D01*
X0259978Y0047614D01*
X0260194Y0047399D01*
X0260416Y0047190D01*
X0260643Y0046986D01*
X0260874Y0046787D01*
X0261111Y0046594D01*
X0261352Y0046407D01*
X0261408Y0046482D01*
X0261169Y0046668D01*
X0260934Y0046859D01*
X0260705Y0047056D01*
X0260480Y0047259D01*
X0260259Y0047467D01*
X0260045Y0047681D01*
X0259835Y0047899D01*
X0259631Y0048123D01*
X0259432Y0048351D01*
X0259239Y0048585D01*
X0259052Y0048823D01*
X0258871Y0049065D01*
X0258695Y0049312D01*
X0258526Y0049563D01*
X0258363Y0049819D01*
X0258206Y0050078D01*
X0258056Y0050341D01*
X0257912Y0050607D01*
X0257774Y0050877D01*
X0257643Y0051150D01*
X0257519Y0051426D01*
X0257402Y0051706D01*
X0257292Y0051988D01*
X0257188Y0052272D01*
X0257092Y0052559D01*
X0257002Y0052849D01*
X0256920Y0053140D01*
X0256845Y0053433D01*
X0256777Y0053729D01*
X0256716Y0054025D01*
X0256663Y0054323D01*
X0256617Y0054623D01*
X0256578Y0054923D01*
X0256546Y0055224D01*
X0256522Y0055526D01*
X0256505Y0055829D01*
X0256496Y0056131D01*
X0256494Y0056434D01*
X0256500Y0056737D01*
X0256513Y0057039D01*
X0256533Y0057342D01*
X0256561Y0057643D01*
X0256596Y0057944D01*
X0256638Y0058244D01*
X0256688Y0058543D01*
X0256745Y0058840D01*
X0256809Y0059136D01*
X0256880Y0059430D01*
X0256959Y0059723D01*
X0257045Y0060013D01*
X0257138Y0060302D01*
X0257237Y0060587D01*
X0257344Y0060871D01*
X0257458Y0061151D01*
X0257578Y0061429D01*
X0257706Y0061704D01*
X0257840Y0061976D01*
X0257980Y0062244D01*
X0258127Y0062509D01*
X0258281Y0062770D01*
X0258441Y0063027D01*
X0258607Y0063280D01*
X0258779Y0063529D01*
X0258957Y0063774D01*
X0259142Y0064015D01*
X0259332Y0064250D01*
X0259527Y0064481D01*
X0259729Y0064708D01*
X0259935Y0064929D01*
X0260148Y0065145D01*
X0260365Y0065356D01*
X0260587Y0065561D01*
X0260815Y0065761D01*
X0261047Y0065956D01*
X0261284Y0066144D01*
X0261526Y0066327D01*
X0261771Y0066504D01*
X0262022Y0066675D01*
X0262276Y0066839D01*
X0262534Y0066998D01*
X0262796Y0067150D01*
X0263061Y0067295D01*
X0263330Y0067434D01*
X0263603Y0067567D01*
X0263878Y0067692D01*
X0264157Y0067811D01*
X0264438Y0067923D01*
X0264722Y0068028D01*
X0265009Y0068127D01*
X0265298Y0068218D01*
X0265589Y0068302D01*
X0265882Y0068379D01*
X0266176Y0068448D01*
X0266473Y0068511D01*
X0266770Y0068566D01*
X0267069Y0068614D01*
X0267369Y0068655D01*
X0267671Y0068688D01*
X0267972Y0068714D01*
X0268275Y0068732D01*
X0268577Y0068743D01*
X0268880Y0068747D01*
X0269183Y0068743D01*
X0269485Y0068732D01*
X0269788Y0068714D01*
X0270089Y0068688D01*
X0270391Y0068655D01*
X0270691Y0068614D01*
X0270990Y0068566D01*
X0271287Y0068511D01*
X0271584Y0068448D01*
X0271878Y0068379D01*
X0272171Y0068302D01*
X0272462Y0068218D01*
X0272751Y0068127D01*
X0273038Y0068028D01*
X0273322Y0067923D01*
X0273603Y0067811D01*
X0273882Y0067692D01*
X0274157Y0067567D01*
X0274430Y0067434D01*
X0274699Y0067295D01*
X0274964Y0067150D01*
X0275226Y0066998D01*
X0275484Y0066839D01*
X0275738Y0066675D01*
X0275989Y0066504D01*
X0276234Y0066327D01*
X0276476Y0066144D01*
X0276713Y0065956D01*
X0276945Y0065761D01*
X0277173Y0065561D01*
X0277395Y0065356D01*
X0277612Y0065145D01*
X0277825Y0064929D01*
X0278031Y0064708D01*
X0278233Y0064481D01*
X0278428Y0064250D01*
X0278618Y0064015D01*
X0278803Y0063774D01*
X0278981Y0063529D01*
X0279153Y0063280D01*
X0279319Y0063027D01*
X0279479Y0062770D01*
X0279633Y0062509D01*
X0279780Y0062244D01*
X0279920Y0061976D01*
X0280054Y0061704D01*
X0280182Y0061429D01*
X0280302Y0061151D01*
X0280416Y0060871D01*
X0280523Y0060587D01*
X0280622Y0060302D01*
X0280715Y0060013D01*
X0280801Y0059723D01*
X0280880Y0059430D01*
X0280951Y0059136D01*
X0281015Y0058840D01*
X0281072Y0058543D01*
X0281122Y0058244D01*
X0281164Y0057944D01*
X0281199Y0057643D01*
X0281227Y0057342D01*
X0281247Y0057039D01*
X0281260Y0056737D01*
X0281266Y0056434D01*
X0281264Y0056131D01*
X0281255Y0055829D01*
X0281238Y0055526D01*
X0281214Y0055224D01*
X0281182Y0054923D01*
X0281143Y0054623D01*
X0281097Y0054323D01*
X0281044Y0054025D01*
X0280983Y0053729D01*
X0280915Y0053433D01*
X0280840Y0053140D01*
X0280758Y0052849D01*
X0280668Y0052559D01*
X0280572Y0052272D01*
X0280468Y0051988D01*
X0280358Y0051706D01*
X0280241Y0051426D01*
X0280117Y0051150D01*
X0279986Y0050877D01*
X0279848Y0050607D01*
X0279704Y0050341D01*
X0279554Y0050078D01*
X0279397Y0049819D01*
X0279234Y0049563D01*
X0279065Y0049312D01*
X0278889Y0049065D01*
X0278708Y0048823D01*
X0278521Y0048585D01*
X0278328Y0048351D01*
X0278129Y0048123D01*
X0277925Y0047899D01*
X0277715Y0047681D01*
X0277501Y0047467D01*
X0277280Y0047259D01*
X0277055Y0047056D01*
X0276826Y0046859D01*
X0276591Y0046668D01*
X0276352Y0046482D01*
X0276295Y0046557D01*
X0276533Y0046742D01*
X0276765Y0046932D01*
X0276994Y0047127D01*
X0277217Y0047328D01*
X0277435Y0047535D01*
X0277649Y0047747D01*
X0277857Y0047964D01*
X0278059Y0048186D01*
X0278256Y0048413D01*
X0278448Y0048644D01*
X0278634Y0048880D01*
X0278814Y0049121D01*
X0278988Y0049366D01*
X0279156Y0049615D01*
X0279318Y0049869D01*
X0279473Y0050126D01*
X0279622Y0050387D01*
X0279765Y0050651D01*
X0279902Y0050919D01*
X0280031Y0051190D01*
X0280154Y0051464D01*
X0280271Y0051741D01*
X0280380Y0052021D01*
X0280483Y0052304D01*
X0280579Y0052588D01*
X0280667Y0052876D01*
X0280749Y0053165D01*
X0280824Y0053456D01*
X0280891Y0053749D01*
X0280952Y0054043D01*
X0281005Y0054339D01*
X0281050Y0054636D01*
X0281089Y0054934D01*
X0281120Y0055233D01*
X0281144Y0055533D01*
X0281161Y0055833D01*
X0281170Y0056133D01*
X0281172Y0056434D01*
X0281166Y0056734D01*
X0281154Y0057035D01*
X0281133Y0057334D01*
X0281106Y0057634D01*
X0281071Y0057932D01*
X0281029Y0058230D01*
X0280980Y0058526D01*
X0280923Y0058821D01*
X0280859Y0059115D01*
X0280789Y0059407D01*
X0280711Y0059697D01*
X0280625Y0059986D01*
X0280533Y0060272D01*
X0280434Y0060556D01*
X0280328Y0060837D01*
X0280215Y0061115D01*
X0280096Y0061391D01*
X0279969Y0061664D01*
X0279836Y0061933D01*
X0279697Y0062199D01*
X0279551Y0062462D01*
X0279399Y0062721D01*
X0279240Y0062977D01*
X0279075Y0063228D01*
X0278904Y0063475D01*
X0278727Y0063718D01*
X0278544Y0063957D01*
X0278356Y0064191D01*
X0278162Y0064420D01*
X0277962Y0064644D01*
X0277757Y0064864D01*
X0277546Y0065078D01*
X0277330Y0065288D01*
X0277110Y0065492D01*
X0276884Y0065690D01*
X0276653Y0065883D01*
X0276418Y0066070D01*
X0276179Y0066252D01*
X0275935Y0066427D01*
X0275686Y0066597D01*
X0275434Y0066760D01*
X0275178Y0066917D01*
X0274918Y0067068D01*
X0274654Y0067212D01*
X0274387Y0067350D01*
X0274117Y0067482D01*
X0273844Y0067606D01*
X0273567Y0067724D01*
X0273288Y0067835D01*
X0273006Y0067940D01*
X0272722Y0068037D01*
X0272435Y0068128D01*
X0272146Y0068211D01*
X0271856Y0068287D01*
X0271563Y0068357D01*
X0271269Y0068419D01*
X0270974Y0068473D01*
X0270677Y0068521D01*
X0270379Y0068561D01*
X0270080Y0068594D01*
X0269781Y0068620D01*
X0269481Y0068638D01*
X0269181Y0068649D01*
X0268880Y0068653D01*
X0268579Y0068649D01*
X0268279Y0068638D01*
X0267979Y0068620D01*
X0267680Y0068594D01*
X0267381Y0068561D01*
X0267083Y0068521D01*
X0266786Y0068473D01*
X0266491Y0068419D01*
X0266197Y0068357D01*
X0265904Y0068287D01*
X0265614Y0068211D01*
X0265325Y0068128D01*
X0265038Y0068037D01*
X0264754Y0067940D01*
X0264472Y0067835D01*
X0264193Y0067724D01*
X0263916Y0067606D01*
X0263643Y0067482D01*
X0263373Y0067350D01*
X0263106Y0067212D01*
X0262842Y0067068D01*
X0262582Y0066917D01*
X0262326Y0066760D01*
X0262074Y0066597D01*
X0261825Y0066427D01*
X0261581Y0066252D01*
X0261342Y0066070D01*
X0261107Y0065883D01*
X0260876Y0065690D01*
X0260650Y0065492D01*
X0260430Y0065288D01*
X0260214Y0065078D01*
X0260003Y0064864D01*
X0259798Y0064644D01*
X0259598Y0064420D01*
X0259404Y0064191D01*
X0259216Y0063957D01*
X0259033Y0063718D01*
X0258856Y0063475D01*
X0258685Y0063228D01*
X0258520Y0062977D01*
X0258361Y0062721D01*
X0258209Y0062462D01*
X0258063Y0062199D01*
X0257924Y0061933D01*
X0257791Y0061664D01*
X0257664Y0061391D01*
X0257545Y0061115D01*
X0257432Y0060837D01*
X0257326Y0060556D01*
X0257227Y0060272D01*
X0257135Y0059986D01*
X0257049Y0059697D01*
X0256971Y0059407D01*
X0256901Y0059115D01*
X0256837Y0058821D01*
X0256780Y0058526D01*
X0256731Y0058230D01*
X0256689Y0057932D01*
X0256654Y0057634D01*
X0256627Y0057334D01*
X0256606Y0057035D01*
X0256594Y0056734D01*
X0256588Y0056434D01*
X0256590Y0056133D01*
X0256599Y0055833D01*
X0256616Y0055533D01*
X0256640Y0055233D01*
X0256671Y0054934D01*
X0256710Y0054636D01*
X0256755Y0054339D01*
X0256808Y0054043D01*
X0256869Y0053749D01*
X0256936Y0053456D01*
X0257011Y0053165D01*
X0257093Y0052876D01*
X0257181Y0052588D01*
X0257277Y0052304D01*
X0257380Y0052021D01*
X0257489Y0051741D01*
X0257606Y0051464D01*
X0257729Y0051190D01*
X0257858Y0050919D01*
X0257995Y0050651D01*
X0258138Y0050387D01*
X0258287Y0050126D01*
X0258442Y0049869D01*
X0258604Y0049615D01*
X0258772Y0049366D01*
X0258946Y0049121D01*
X0259126Y0048880D01*
X0259312Y0048644D01*
X0259504Y0048413D01*
X0259701Y0048186D01*
X0259903Y0047964D01*
X0260111Y0047747D01*
X0260325Y0047535D01*
X0260543Y0047328D01*
X0260766Y0047127D01*
X0260995Y0046932D01*
X0261227Y0046742D01*
X0261465Y0046557D01*
X0261521Y0046633D01*
X0261286Y0046815D01*
X0261055Y0047004D01*
X0260828Y0047198D01*
X0260606Y0047398D01*
X0260390Y0047603D01*
X0260178Y0047813D01*
X0259972Y0048028D01*
X0259771Y0048248D01*
X0259575Y0048474D01*
X0259385Y0048703D01*
X0259201Y0048938D01*
X0259022Y0049177D01*
X0258849Y0049420D01*
X0258683Y0049667D01*
X0258522Y0049919D01*
X0258368Y0050174D01*
X0258220Y0050433D01*
X0258078Y0050695D01*
X0257943Y0050961D01*
X0257814Y0051230D01*
X0257692Y0051502D01*
X0257576Y0051777D01*
X0257467Y0052055D01*
X0257366Y0052335D01*
X0257271Y0052618D01*
X0257183Y0052903D01*
X0257102Y0053190D01*
X0257027Y0053478D01*
X0256961Y0053769D01*
X0256901Y0054061D01*
X0256848Y0054355D01*
X0256803Y0054650D01*
X0256764Y0054945D01*
X0256733Y0055242D01*
X0256710Y0055539D01*
X0256693Y0055837D01*
X0256684Y0056135D01*
X0256682Y0056433D01*
X0256688Y0056732D01*
X0256700Y0057030D01*
X0256720Y0057327D01*
X0256748Y0057624D01*
X0256782Y0057920D01*
X0256824Y0058216D01*
X0256873Y0058510D01*
X0256929Y0058803D01*
X0256992Y0059094D01*
X0257063Y0059384D01*
X0257140Y0059672D01*
X0257224Y0059958D01*
X0257316Y0060242D01*
X0257414Y0060524D01*
X0257519Y0060803D01*
X0257631Y0061079D01*
X0257750Y0061353D01*
X0257875Y0061623D01*
X0258007Y0061891D01*
X0258146Y0062155D01*
X0258291Y0062416D01*
X0258442Y0062673D01*
X0258599Y0062926D01*
X0258763Y0063175D01*
X0258933Y0063421D01*
X0259108Y0063662D01*
X0259290Y0063899D01*
X0259477Y0064131D01*
X0259669Y0064358D01*
X0259868Y0064581D01*
X0260071Y0064799D01*
X0260280Y0065012D01*
X0260494Y0065220D01*
X0260714Y0065422D01*
X0260937Y0065619D01*
X0261166Y0065810D01*
X0261400Y0065996D01*
X0261637Y0066176D01*
X0261879Y0066350D01*
X0262126Y0066518D01*
X0262376Y0066680D01*
X0262630Y0066836D01*
X0262888Y0066986D01*
X0263150Y0067129D01*
X0263415Y0067266D01*
X0263683Y0067397D01*
X0263954Y0067520D01*
X0264229Y0067637D01*
X0264506Y0067748D01*
X0264786Y0067851D01*
X0265068Y0067948D01*
X0265352Y0068038D01*
X0265639Y0068120D01*
X0265927Y0068196D01*
X0266217Y0068265D01*
X0266509Y0068326D01*
X0266802Y0068381D01*
X0267097Y0068428D01*
X0267392Y0068468D01*
X0267689Y0068501D01*
X0267986Y0068526D01*
X0268284Y0068544D01*
X0268582Y0068555D01*
X0268880Y0068559D01*
X0269178Y0068555D01*
X0269476Y0068544D01*
X0269774Y0068526D01*
X0270071Y0068501D01*
X0270368Y0068468D01*
X0270663Y0068428D01*
X0270958Y0068381D01*
X0271251Y0068326D01*
X0271543Y0068265D01*
X0271833Y0068196D01*
X0272121Y0068120D01*
X0272408Y0068038D01*
X0272692Y0067948D01*
X0272974Y0067851D01*
X0273254Y0067748D01*
X0273531Y0067637D01*
X0273806Y0067520D01*
X0274077Y0067397D01*
X0274345Y0067266D01*
X0274610Y0067129D01*
X0274872Y0066986D01*
X0275130Y0066836D01*
X0275384Y0066680D01*
X0275634Y0066518D01*
X0275881Y0066350D01*
X0276123Y0066176D01*
X0276360Y0065996D01*
X0276594Y0065810D01*
X0276823Y0065619D01*
X0277046Y0065422D01*
X0277266Y0065220D01*
X0277480Y0065012D01*
X0277689Y0064799D01*
X0277892Y0064581D01*
X0278091Y0064358D01*
X0278283Y0064131D01*
X0278470Y0063899D01*
X0278652Y0063662D01*
X0278827Y0063421D01*
X0278997Y0063175D01*
X0279161Y0062926D01*
X0279318Y0062673D01*
X0279469Y0062416D01*
X0279614Y0062155D01*
X0279753Y0061891D01*
X0279885Y0061623D01*
X0280010Y0061353D01*
X0280129Y0061079D01*
X0280241Y0060803D01*
X0280346Y0060524D01*
X0280444Y0060242D01*
X0280536Y0059958D01*
X0280620Y0059672D01*
X0280697Y0059384D01*
X0280768Y0059094D01*
X0280831Y0058803D01*
X0280887Y0058510D01*
X0280936Y0058216D01*
X0280978Y0057920D01*
X0281012Y0057624D01*
X0281040Y0057327D01*
X0281060Y0057030D01*
X0281072Y0056732D01*
X0281078Y0056433D01*
X0281076Y0056135D01*
X0281067Y0055837D01*
X0281050Y0055539D01*
X0281027Y0055242D01*
X0280996Y0054945D01*
X0280957Y0054650D01*
X0280912Y0054355D01*
X0280859Y0054061D01*
X0280799Y0053769D01*
X0280733Y0053478D01*
X0280658Y0053190D01*
X0280577Y0052903D01*
X0280489Y0052618D01*
X0280394Y0052335D01*
X0280293Y0052055D01*
X0280184Y0051777D01*
X0280068Y0051502D01*
X0279946Y0051230D01*
X0279817Y0050961D01*
X0279682Y0050695D01*
X0279540Y0050433D01*
X0279392Y0050174D01*
X0279238Y0049919D01*
X0279077Y0049667D01*
X0278911Y0049420D01*
X0278738Y0049177D01*
X0278559Y0048938D01*
X0278375Y0048703D01*
X0278185Y0048474D01*
X0277989Y0048248D01*
X0277788Y0048028D01*
X0277582Y0047813D01*
X0277370Y0047603D01*
X0277154Y0047398D01*
X0276932Y0047198D01*
X0276705Y0047004D01*
X0276474Y0046815D01*
X0276239Y0046633D01*
X0276182Y0046708D01*
X0276416Y0046889D01*
X0276645Y0047076D01*
X0276870Y0047269D01*
X0277090Y0047467D01*
X0277305Y0047670D01*
X0277515Y0047879D01*
X0277720Y0048093D01*
X0277919Y0048311D01*
X0278113Y0048535D01*
X0278302Y0048763D01*
X0278485Y0048995D01*
X0278662Y0049232D01*
X0278833Y0049474D01*
X0278999Y0049719D01*
X0279158Y0049968D01*
X0279311Y0050222D01*
X0279458Y0050478D01*
X0279599Y0050739D01*
X0279733Y0051003D01*
X0279861Y0051270D01*
X0279982Y0051540D01*
X0280097Y0051812D01*
X0280205Y0052088D01*
X0280306Y0052366D01*
X0280400Y0052647D01*
X0280487Y0052929D01*
X0280568Y0053214D01*
X0280641Y0053501D01*
X0280708Y0053789D01*
X0280767Y0054079D01*
X0280819Y0054371D01*
X0280864Y0054663D01*
X0280902Y0054957D01*
X0280933Y0055251D01*
X0280957Y0055546D01*
X0280973Y0055841D01*
X0280982Y0056137D01*
X0280984Y0056433D01*
X0280978Y0056729D01*
X0280966Y0057025D01*
X0280946Y0057320D01*
X0280919Y0057615D01*
X0280885Y0057909D01*
X0280843Y0058202D01*
X0280795Y0058494D01*
X0280739Y0058784D01*
X0280676Y0059073D01*
X0280606Y0059361D01*
X0280529Y0059647D01*
X0280446Y0059931D01*
X0280355Y0060212D01*
X0280257Y0060492D01*
X0280153Y0060769D01*
X0280042Y0061043D01*
X0279924Y0061314D01*
X0279800Y0061583D01*
X0279669Y0061848D01*
X0279531Y0062110D01*
X0279388Y0062369D01*
X0279238Y0062624D01*
X0279081Y0062876D01*
X0278919Y0063123D01*
X0278751Y0063366D01*
X0278576Y0063606D01*
X0278396Y0063841D01*
X0278211Y0064071D01*
X0278019Y0064297D01*
X0277823Y0064518D01*
X0277621Y0064734D01*
X0277413Y0064945D01*
X0277201Y0065151D01*
X0276983Y0065352D01*
X0276761Y0065548D01*
X0276534Y0065738D01*
X0276303Y0065922D01*
X0276067Y0066100D01*
X0275827Y0066273D01*
X0275582Y0066440D01*
X0275334Y0066601D01*
X0275081Y0066756D01*
X0274825Y0066904D01*
X0274566Y0067046D01*
X0274303Y0067182D01*
X0274037Y0067312D01*
X0273768Y0067434D01*
X0273495Y0067551D01*
X0273220Y0067660D01*
X0272943Y0067763D01*
X0272663Y0067859D01*
X0272381Y0067948D01*
X0272096Y0068030D01*
X0271810Y0068105D01*
X0271522Y0068173D01*
X0271233Y0068234D01*
X0270942Y0068288D01*
X0270649Y0068335D01*
X0270356Y0068375D01*
X0270062Y0068407D01*
X0269767Y0068432D01*
X0269472Y0068451D01*
X0269176Y0068461D01*
X0268880Y0068465D01*
X0268584Y0068461D01*
X0268288Y0068451D01*
X0267993Y0068432D01*
X0267698Y0068407D01*
X0267404Y0068375D01*
X0267111Y0068335D01*
X0266818Y0068288D01*
X0266527Y0068234D01*
X0266238Y0068173D01*
X0265950Y0068105D01*
X0265664Y0068030D01*
X0265379Y0067948D01*
X0265097Y0067859D01*
X0264817Y0067763D01*
X0264540Y0067660D01*
X0264265Y0067551D01*
X0263992Y0067434D01*
X0263723Y0067312D01*
X0263457Y0067182D01*
X0263194Y0067046D01*
X0262935Y0066904D01*
X0262679Y0066756D01*
X0262426Y0066601D01*
X0262178Y0066440D01*
X0261933Y0066273D01*
X0261693Y0066100D01*
X0261457Y0065922D01*
X0261226Y0065738D01*
X0260999Y0065548D01*
X0260777Y0065352D01*
X0260559Y0065151D01*
X0260347Y0064945D01*
X0260139Y0064734D01*
X0259937Y0064518D01*
X0259741Y0064297D01*
X0259549Y0064071D01*
X0259364Y0063841D01*
X0259184Y0063606D01*
X0259009Y0063366D01*
X0258841Y0063123D01*
X0258679Y0062876D01*
X0258522Y0062624D01*
X0258372Y0062369D01*
X0258229Y0062110D01*
X0258091Y0061848D01*
X0257960Y0061583D01*
X0257836Y0061314D01*
X0257718Y0061043D01*
X0257607Y0060769D01*
X0257503Y0060492D01*
X0257405Y0060212D01*
X0257314Y0059931D01*
X0257231Y0059647D01*
X0257154Y0059361D01*
X0257084Y0059073D01*
X0257021Y0058784D01*
X0256965Y0058494D01*
X0256917Y0058202D01*
X0256875Y0057909D01*
X0256841Y0057615D01*
X0256814Y0057320D01*
X0256794Y0057025D01*
X0256782Y0056729D01*
X0256776Y0056433D01*
X0256778Y0056137D01*
X0256787Y0055841D01*
X0256803Y0055546D01*
X0256827Y0055251D01*
X0256858Y0054957D01*
X0256896Y0054663D01*
X0256941Y0054371D01*
X0256993Y0054079D01*
X0257052Y0053789D01*
X0257119Y0053501D01*
X0257192Y0053214D01*
X0257273Y0052929D01*
X0257360Y0052647D01*
X0257454Y0052366D01*
X0257555Y0052088D01*
X0257663Y0051812D01*
X0257778Y0051540D01*
X0257899Y0051270D01*
X0258027Y0051003D01*
X0258161Y0050739D01*
X0258302Y0050478D01*
X0258449Y0050222D01*
X0258602Y0049968D01*
X0258761Y0049719D01*
X0258927Y0049474D01*
X0259098Y0049232D01*
X0259275Y0048995D01*
X0259458Y0048763D01*
X0259647Y0048535D01*
X0259841Y0048311D01*
X0260040Y0048093D01*
X0260245Y0047879D01*
X0260455Y0047670D01*
X0260670Y0047467D01*
X0260890Y0047269D01*
X0261115Y0047076D01*
X0261344Y0046889D01*
X0261578Y0046708D01*
M02*
