G75*
%MOIN*%
%OFA0B0*%
%FSLAX25Y25*%
%IPPOS*%
%LPD*%
%AMOC8*
5,1,8,0,0,1.08239X$1,22.5*
%
%ADD10R,0.06306X0.06306*%
%ADD11C,0.06306*%
%ADD12C,0.06900*%
%ADD13C,0.06000*%
%ADD14R,0.06000X0.06000*%
%ADD15C,0.06400*%
%ADD16C,0.09061*%
%ADD17C,0.09000*%
%ADD18C,0.05321*%
%ADD19C,0.07800*%
%ADD20OC8,0.07000*%
%ADD21R,0.04337X0.05912*%
%ADD22R,0.06699X0.05518*%
%ADD23R,0.08000X0.08000*%
%ADD24R,0.07000X0.07000*%
D10*
X0167923Y0207923D03*
X0238723Y0283723D03*
X0098723Y0293723D03*
D11*
X0098723Y0283723D03*
X0098723Y0273723D03*
X0098723Y0263723D03*
X0098723Y0253723D03*
X0098723Y0243723D03*
X0097923Y0207923D03*
X0107923Y0207923D03*
X0117923Y0207923D03*
X0127923Y0207923D03*
X0137923Y0207923D03*
X0147923Y0207923D03*
X0157923Y0207923D03*
X0157923Y0147923D03*
X0167923Y0147923D03*
X0147923Y0147923D03*
X0137923Y0147923D03*
X0127923Y0147923D03*
X0117923Y0147923D03*
X0107923Y0147923D03*
X0097923Y0147923D03*
X0087923Y0147923D03*
X0077923Y0147923D03*
X0067923Y0147923D03*
X0057923Y0147923D03*
X0047923Y0147923D03*
X0037923Y0147923D03*
X0027923Y0147923D03*
X0027923Y0207923D03*
X0037923Y0207923D03*
X0047923Y0207923D03*
X0057923Y0207923D03*
X0067923Y0207923D03*
X0077923Y0207923D03*
X0087923Y0207923D03*
X0238723Y0253723D03*
X0238723Y0263723D03*
X0238723Y0273723D03*
D12*
X0177923Y0207923D03*
X0177923Y0147923D03*
X0017923Y0147923D03*
X0017923Y0207923D03*
D13*
X0207133Y0132549D03*
X0213583Y0128033D03*
X0220033Y0123516D03*
X0226483Y0119000D03*
X0232933Y0114484D03*
X0239383Y0109967D03*
X0245833Y0105451D03*
X0252283Y0100934D03*
X0258733Y0096418D03*
X0265183Y0091902D03*
X0308413Y0167368D03*
X0301963Y0171885D03*
X0295513Y0176401D03*
X0289063Y0180917D03*
X0282613Y0185434D03*
X0276163Y0189950D03*
X0269713Y0194466D03*
X0263263Y0198983D03*
X0256813Y0203499D03*
D14*
G36*
X0310685Y0162116D02*
X0314127Y0167030D01*
X0319041Y0163588D01*
X0315599Y0158674D01*
X0310685Y0162116D01*
G37*
D15*
X0240298Y0056211D02*
X0240298Y0050211D01*
X0230298Y0050211D02*
X0230298Y0056211D01*
X0220298Y0056211D02*
X0220298Y0050211D01*
X0220623Y0031223D02*
X0220623Y0025223D01*
X0230623Y0025223D02*
X0230623Y0031223D01*
X0240623Y0031223D02*
X0240623Y0025223D01*
X0191891Y0114617D02*
X0191891Y0120617D01*
X0181891Y0120617D02*
X0181891Y0114617D01*
X0171891Y0114617D02*
X0171891Y0120617D01*
X0161891Y0120617D02*
X0161891Y0114617D01*
X0151891Y0114617D02*
X0151891Y0120617D01*
X0083323Y0235365D02*
X0077323Y0235365D01*
X0077323Y0245365D02*
X0083323Y0245365D01*
X0083323Y0255365D02*
X0077323Y0255365D01*
X0058323Y0255365D02*
X0052323Y0255365D01*
X0052323Y0245365D02*
X0058323Y0245365D01*
X0058323Y0235365D02*
X0052323Y0235365D01*
X0033323Y0235523D02*
X0027323Y0235523D01*
X0027323Y0225523D02*
X0033323Y0225523D01*
X0033323Y0245523D02*
X0027323Y0245523D01*
D16*
X0123723Y0231223D03*
X0123723Y0306223D03*
X0228723Y0306223D03*
D17*
X0263320Y0243961D02*
X0263320Y0235361D01*
X0299343Y0219810D02*
X0307943Y0219810D01*
X0312729Y0185952D02*
X0321329Y0185952D01*
X0305581Y0149731D02*
X0296981Y0149731D01*
X0229265Y0149731D02*
X0220665Y0149731D01*
X0213910Y0185952D02*
X0205310Y0185952D01*
X0218302Y0219417D02*
X0226902Y0219417D01*
D18*
X0170455Y0317975D03*
X0138959Y0317975D03*
D19*
X0033054Y0122896D03*
X0023054Y0122896D03*
X0033054Y0106754D03*
X0033054Y0096754D03*
D20*
X0268880Y0061361D03*
X0268880Y0051361D03*
D21*
X0209235Y0043369D03*
X0201754Y0043369D03*
X0205494Y0034707D03*
D22*
X0205494Y0053014D03*
X0205494Y0060494D03*
D23*
X0070652Y0052817D03*
X0079510Y0035101D03*
X0111991Y0052817D03*
X0115623Y0017523D03*
X0111991Y0123683D03*
X0070652Y0123683D03*
D24*
X0115623Y0036323D03*
X0115623Y0027123D03*
M02*
